<svg width="720" height="576" viewBox="0 0 720 576" fill="none" xmlns="http://www.w3.org/2000/svg">
<g id="table">
<rect id="bg" x="5" y="2" width="720" height="576" fill="#C4C4C4" fill-opacity="0.1"/>
<path id="Vector" d="M1 0H0V1H1V0Z" fill="white"/>
<rect id="Rectangle 1" x="60.5" y="38.5" width="599" height="499" stroke="black"/>
<line id="Line 1" x1="360.5" y1="38" x2="360.5" y2="416" stroke="black"/>
<line id="Line 2" x1="60" y1="289.5" x2="660" y2="289.5" stroke="black"/>
<line id="Line 3" x1="60" y1="415.5" x2="660" y2="415.5" stroke="black"/>
<line id="Line 4" x1="60" y1="155.5" x2="660" y2="155.5" stroke="black"/>
<path id="CBSE" d="M176.086 111.172C175.664 114.781 174.328 117.57 172.078 119.539C169.844 121.492 166.867 122.469 163.148 122.469C159.117 122.469 155.883 121.023 153.445 118.133C151.023 115.242 149.812 111.375 149.812 106.531V103.25C149.812 100.078 150.375 97.2891 151.5 94.8828C152.641 92.4766 154.25 90.6328 156.328 89.3516C158.406 88.0547 160.812 87.4062 163.547 87.4062C167.172 87.4062 170.078 88.4219 172.266 90.4531C174.453 92.4688 175.727 95.2656 176.086 98.8438H171.562C171.172 96.125 170.32 94.1562 169.008 92.9375C167.711 91.7188 165.891 91.1094 163.547 91.1094C160.672 91.1094 158.414 92.1719 156.773 94.2969C155.148 96.4219 154.336 99.4453 154.336 103.367V106.672C154.336 110.375 155.109 113.32 156.656 115.508C158.203 117.695 160.367 118.789 163.148 118.789C165.648 118.789 167.562 118.227 168.891 117.102C170.234 115.961 171.125 113.984 171.562 111.172H176.086ZM182.25 122V87.875H193.406C197.109 87.875 199.891 88.6406 201.75 90.1719C203.625 91.7031 204.562 93.9688 204.562 96.9688C204.562 98.5625 204.109 99.9766 203.203 101.211C202.297 102.43 201.062 103.375 199.5 104.047C201.344 104.562 202.797 105.547 203.859 107C204.938 108.438 205.477 110.156 205.477 112.156C205.477 115.219 204.484 117.625 202.5 119.375C200.516 121.125 197.711 122 194.086 122H182.25ZM186.75 106.039V118.32H194.18C196.273 118.32 197.922 117.781 199.125 116.703C200.344 115.609 200.953 114.109 200.953 112.203C200.953 108.094 198.719 106.039 194.25 106.039H186.75ZM186.75 102.43H193.547C195.516 102.43 197.086 101.938 198.258 100.953C199.445 99.9688 200.039 98.6328 200.039 96.9453C200.039 95.0703 199.492 93.7109 198.398 92.8672C197.305 92.0078 195.641 91.5781 193.406 91.5781H186.75V102.43ZM222.211 106.789C218.352 105.68 215.539 104.32 213.773 102.711C212.023 101.086 211.148 99.0859 211.148 96.7109C211.148 94.0234 212.219 91.8047 214.359 90.0547C216.516 88.2891 219.312 87.4062 222.75 87.4062C225.094 87.4062 227.18 87.8594 229.008 88.7656C230.852 89.6719 232.273 90.9219 233.273 92.5156C234.289 94.1094 234.797 95.8516 234.797 97.7422H230.273C230.273 95.6797 229.617 94.0625 228.305 92.8906C226.992 91.7031 225.141 91.1094 222.75 91.1094C220.531 91.1094 218.797 91.6016 217.547 92.5859C216.312 93.5547 215.695 94.9062 215.695 96.6406C215.695 98.0312 216.281 99.2109 217.453 100.18C218.641 101.133 220.648 102.008 223.477 102.805C226.32 103.602 228.539 104.484 230.133 105.453C231.742 106.406 232.93 107.523 233.695 108.805C234.477 110.086 234.867 111.594 234.867 113.328C234.867 116.094 233.789 118.312 231.633 119.984C229.477 121.641 226.594 122.469 222.984 122.469C220.641 122.469 218.453 122.023 216.422 121.133C214.391 120.227 212.82 118.992 211.711 117.43C210.617 115.867 210.07 114.094 210.07 112.109H214.594C214.594 114.172 215.352 115.805 216.867 117.008C218.398 118.195 220.438 118.789 222.984 118.789C225.359 118.789 227.18 118.305 228.445 117.336C229.711 116.367 230.344 115.047 230.344 113.375C230.344 111.703 229.758 110.414 228.586 109.508C227.414 108.586 225.289 107.68 222.211 106.789ZM259.945 106.227H245.156V118.32H262.336V122H240.656V87.875H262.102V91.5781H245.156V102.547H259.945V106.227Z" fill="black"/>
<path id="Cambridge (CIE)" d="M139.6 209.879C139.283 212.586 138.281 214.678 136.594 216.154C134.918 217.619 132.686 218.352 129.896 218.352C126.873 218.352 124.447 217.268 122.619 215.1C120.803 212.932 119.895 210.031 119.895 206.398V203.938C119.895 201.559 120.316 199.467 121.16 197.662C122.016 195.857 123.223 194.475 124.781 193.514C126.34 192.541 128.145 192.055 130.195 192.055C132.914 192.055 135.094 192.816 136.734 194.34C138.375 195.852 139.33 197.949 139.6 200.633H136.207C135.914 198.594 135.275 197.117 134.291 196.203C133.318 195.289 131.953 194.832 130.195 194.832C128.039 194.832 126.346 195.629 125.115 197.223C123.896 198.816 123.287 201.084 123.287 204.025V206.504C123.287 209.281 123.867 211.49 125.027 213.131C126.188 214.771 127.811 215.592 129.896 215.592C131.771 215.592 133.207 215.17 134.203 214.326C135.211 213.471 135.879 211.988 136.207 209.879H139.6ZM155.455 218C155.268 217.625 155.115 216.957 154.998 215.996C153.486 217.566 151.682 218.352 149.584 218.352C147.709 218.352 146.168 217.824 144.961 216.77C143.766 215.703 143.168 214.355 143.168 212.727C143.168 210.746 143.918 209.211 145.418 208.121C146.93 207.02 149.051 206.469 151.781 206.469H154.945V204.975C154.945 203.838 154.605 202.936 153.926 202.268C153.246 201.588 152.244 201.248 150.92 201.248C149.76 201.248 148.787 201.541 148.002 202.127C147.217 202.713 146.824 203.422 146.824 204.254H143.555C143.555 203.305 143.889 202.391 144.557 201.512C145.236 200.621 146.15 199.918 147.299 199.402C148.459 198.887 149.73 198.629 151.113 198.629C153.305 198.629 155.021 199.18 156.264 200.281C157.506 201.371 158.15 202.877 158.197 204.799V213.553C158.197 215.299 158.42 216.688 158.865 217.719V218H155.455ZM150.059 215.521C151.078 215.521 152.045 215.258 152.959 214.73C153.873 214.203 154.535 213.518 154.945 212.674V208.771H152.396C148.412 208.771 146.42 209.938 146.42 212.27C146.42 213.289 146.76 214.086 147.439 214.66C148.119 215.234 148.992 215.521 150.059 215.521ZM166.354 198.98L166.441 201.09C167.836 199.449 169.717 198.629 172.084 198.629C174.744 198.629 176.555 199.648 177.516 201.688C178.148 200.773 178.969 200.035 179.977 199.473C180.996 198.91 182.197 198.629 183.58 198.629C187.752 198.629 189.873 200.838 189.943 205.256V218H186.691V205.449C186.691 204.09 186.381 203.076 185.76 202.408C185.139 201.729 184.096 201.389 182.631 201.389C181.424 201.389 180.422 201.752 179.625 202.479C178.828 203.193 178.365 204.16 178.236 205.379V218H174.967V205.537C174.967 202.771 173.613 201.389 170.906 201.389C168.773 201.389 167.314 202.297 166.529 204.113V218H163.277V198.98H166.354ZM210.967 208.701C210.967 211.607 210.299 213.945 208.963 215.715C207.627 217.473 205.834 218.352 203.584 218.352C201.182 218.352 199.324 217.502 198.012 215.803L197.854 218H194.865V191H198.117V201.072C199.43 199.443 201.24 198.629 203.549 198.629C205.857 198.629 207.668 199.502 208.98 201.248C210.305 202.994 210.967 205.385 210.967 208.42V208.701ZM207.715 208.332C207.715 206.117 207.287 204.406 206.432 203.199C205.576 201.992 204.346 201.389 202.74 201.389C200.596 201.389 199.055 202.385 198.117 204.377V212.604C199.113 214.596 200.666 215.592 202.775 215.592C204.334 215.592 205.547 214.988 206.414 213.781C207.281 212.574 207.715 210.758 207.715 208.332ZM224.273 201.898C223.781 201.816 223.248 201.775 222.674 201.775C220.541 201.775 219.094 202.684 218.332 204.5V218H215.08V198.98H218.244L218.297 201.178C219.363 199.479 220.875 198.629 222.832 198.629C223.465 198.629 223.945 198.711 224.273 198.875V201.898ZM230.812 218H227.561V198.98H230.812V218ZM227.297 193.936C227.297 193.408 227.455 192.963 227.771 192.6C228.1 192.236 228.58 192.055 229.213 192.055C229.846 192.055 230.326 192.236 230.654 192.6C230.982 192.963 231.146 193.408 231.146 193.936C231.146 194.463 230.982 194.902 230.654 195.254C230.326 195.605 229.846 195.781 229.213 195.781C228.58 195.781 228.1 195.605 227.771 195.254C227.455 194.902 227.297 194.463 227.297 193.936ZM235.242 208.332C235.242 205.414 235.934 203.07 237.316 201.301C238.699 199.52 240.51 198.629 242.748 198.629C244.975 198.629 246.738 199.391 248.039 200.914V191H251.291V218H248.303L248.145 215.961C246.844 217.555 245.033 218.352 242.713 218.352C240.51 218.352 238.711 217.449 237.316 215.645C235.934 213.84 235.242 211.484 235.242 208.578V208.332ZM238.494 208.701C238.494 210.857 238.939 212.545 239.83 213.764C240.721 214.982 241.951 215.592 243.521 215.592C245.584 215.592 247.09 214.666 248.039 212.814V204.078C247.066 202.285 245.572 201.389 243.557 201.389C241.963 201.389 240.721 202.004 239.83 203.234C238.939 204.465 238.494 206.287 238.494 208.701ZM255.58 208.332C255.58 205.367 256.266 203.012 257.637 201.266C259.008 199.508 260.824 198.629 263.086 198.629C265.406 198.629 267.217 199.449 268.518 201.09L268.676 198.98H271.646V217.543C271.646 220.004 270.914 221.943 269.449 223.361C267.996 224.779 266.039 225.488 263.578 225.488C262.207 225.488 260.865 225.195 259.553 224.609C258.24 224.023 257.238 223.221 256.547 222.201L258.234 220.25C259.629 221.973 261.334 222.834 263.35 222.834C264.932 222.834 266.162 222.389 267.041 221.498C267.932 220.607 268.377 219.354 268.377 217.736V216.102C267.076 217.602 265.301 218.352 263.051 218.352C260.824 218.352 259.02 217.455 257.637 215.662C256.266 213.869 255.58 211.426 255.58 208.332ZM258.85 208.701C258.85 210.846 259.289 212.533 260.168 213.764C261.047 214.982 262.277 215.592 263.859 215.592C265.91 215.592 267.416 214.66 268.377 212.797V204.113C267.381 202.297 265.887 201.389 263.895 201.389C262.312 201.389 261.076 202.004 260.186 203.234C259.295 204.465 258.85 206.287 258.85 208.701ZM284.461 218.352C281.883 218.352 279.785 217.508 278.168 215.82C276.551 214.121 275.742 211.854 275.742 209.018V208.42C275.742 206.533 276.1 204.852 276.814 203.375C277.541 201.887 278.549 200.727 279.838 199.895C281.139 199.051 282.545 198.629 284.057 198.629C286.529 198.629 288.451 199.443 289.822 201.072C291.193 202.701 291.879 205.033 291.879 208.068V209.422H278.994C279.041 211.297 279.586 212.814 280.629 213.975C281.684 215.123 283.02 215.697 284.637 215.697C285.785 215.697 286.758 215.463 287.555 214.994C288.352 214.525 289.049 213.904 289.646 213.131L291.633 214.678C290.039 217.127 287.648 218.352 284.461 218.352ZM284.057 201.301C282.744 201.301 281.643 201.781 280.752 202.742C279.861 203.691 279.311 205.027 279.1 206.75H288.627V206.504C288.533 204.852 288.088 203.574 287.291 202.672C286.494 201.758 285.416 201.301 284.057 201.301ZM168.568 249.611C168.568 246.963 168.92 244.42 169.623 241.982C170.338 239.545 171.398 237.33 172.805 235.338C174.211 233.346 175.67 231.939 177.182 231.119L177.85 233.264C176.139 234.576 174.732 236.58 173.631 239.275C172.541 241.971 171.943 244.988 171.838 248.328L171.82 249.822C171.82 254.346 172.646 258.271 174.299 261.6C175.295 263.592 176.479 265.15 177.85 266.275L177.182 268.262C175.623 267.395 174.135 265.941 172.717 263.902C169.951 259.918 168.568 255.154 168.568 249.611ZM200.332 251.879C200.016 254.586 199.014 256.678 197.326 258.154C195.65 259.619 193.418 260.352 190.629 260.352C187.605 260.352 185.18 259.268 183.352 257.1C181.535 254.932 180.627 252.031 180.627 248.398V245.938C180.627 243.559 181.049 241.467 181.893 239.662C182.748 237.857 183.955 236.475 185.514 235.514C187.072 234.541 188.877 234.055 190.928 234.055C193.646 234.055 195.826 234.816 197.467 236.34C199.107 237.852 200.062 239.949 200.332 242.633H196.939C196.646 240.594 196.008 239.117 195.023 238.203C194.051 237.289 192.686 236.832 190.928 236.832C188.771 236.832 187.078 237.629 185.848 239.223C184.629 240.816 184.02 243.084 184.02 246.025V248.504C184.02 251.281 184.6 253.49 185.76 255.131C186.92 256.771 188.543 257.592 190.629 257.592C192.504 257.592 193.939 257.17 194.936 256.326C195.943 255.471 196.611 253.988 196.939 251.879H200.332ZM208.576 260H205.201V234.406H208.576V260ZM229.23 248.17H218.139V257.24H231.023V260H214.764V234.406H230.848V237.184H218.139V245.41H229.23V248.17ZM242.221 249.787C242.221 252.4 241.875 254.908 241.184 257.311C240.504 259.701 239.455 261.91 238.037 263.938C236.631 265.965 235.154 267.406 233.607 268.262L232.922 266.275C234.727 264.893 236.174 262.748 237.264 259.842C238.365 256.924 238.928 253.689 238.951 250.139V249.576C238.951 247.115 238.693 244.83 238.178 242.721C237.662 240.6 236.941 238.701 236.016 237.025C235.102 235.35 234.07 234.043 232.922 233.105L233.607 231.119C235.154 231.975 236.625 233.404 238.02 235.408C239.426 237.412 240.475 239.621 241.166 242.035C241.869 244.449 242.221 247.033 242.221 249.787Z" fill="black"/>
<path id="Madrasa boards" d="M142.553 318.406L150.92 339.289L159.287 318.406H163.664V344H160.289V334.033L160.605 323.275L152.203 344H149.619L141.234 323.328L141.568 334.033V344H138.193V318.406H142.553ZM180.855 344C180.668 343.625 180.516 342.957 180.398 341.996C178.887 343.566 177.082 344.352 174.984 344.352C173.109 344.352 171.568 343.824 170.361 342.77C169.166 341.703 168.568 340.355 168.568 338.727C168.568 336.746 169.318 335.211 170.818 334.121C172.33 333.02 174.451 332.469 177.182 332.469H180.346V330.975C180.346 329.838 180.006 328.936 179.326 328.268C178.646 327.588 177.645 327.248 176.32 327.248C175.16 327.248 174.188 327.541 173.402 328.127C172.617 328.713 172.225 329.422 172.225 330.254H168.955C168.955 329.305 169.289 328.391 169.957 327.512C170.637 326.621 171.551 325.918 172.699 325.402C173.859 324.887 175.131 324.629 176.514 324.629C178.705 324.629 180.422 325.18 181.664 326.281C182.906 327.371 183.551 328.877 183.598 330.799V339.553C183.598 341.299 183.82 342.688 184.266 343.719V344H180.855ZM175.459 341.521C176.479 341.521 177.445 341.258 178.359 340.73C179.273 340.203 179.936 339.518 180.346 338.674V334.771H177.797C173.812 334.771 171.82 335.938 171.82 338.27C171.82 339.289 172.16 340.086 172.84 340.66C173.52 341.234 174.393 341.521 175.459 341.521ZM187.904 334.332C187.904 331.414 188.596 329.07 189.979 327.301C191.361 325.52 193.172 324.629 195.41 324.629C197.637 324.629 199.4 325.391 200.701 326.914V317H203.953V344H200.965L200.807 341.961C199.506 343.555 197.695 344.352 195.375 344.352C193.172 344.352 191.373 343.449 189.979 341.645C188.596 339.84 187.904 337.484 187.904 334.578V334.332ZM191.156 334.701C191.156 336.857 191.602 338.545 192.492 339.764C193.383 340.982 194.613 341.592 196.184 341.592C198.246 341.592 199.752 340.666 200.701 338.814V330.078C199.729 328.285 198.234 327.389 196.219 327.389C194.625 327.389 193.383 328.004 192.492 329.234C191.602 330.465 191.156 332.287 191.156 334.701ZM218.209 327.898C217.717 327.816 217.184 327.775 216.609 327.775C214.477 327.775 213.029 328.684 212.268 330.5V344H209.016V324.98H212.18L212.232 327.178C213.299 325.479 214.811 324.629 216.768 324.629C217.4 324.629 217.881 324.711 218.209 324.875V327.898ZM232.254 344C232.066 343.625 231.914 342.957 231.797 341.996C230.285 343.566 228.48 344.352 226.383 344.352C224.508 344.352 222.967 343.824 221.76 342.77C220.564 341.703 219.967 340.355 219.967 338.727C219.967 336.746 220.717 335.211 222.217 334.121C223.729 333.02 225.85 332.469 228.58 332.469H231.744V330.975C231.744 329.838 231.404 328.936 230.725 328.268C230.045 327.588 229.043 327.248 227.719 327.248C226.559 327.248 225.586 327.541 224.801 328.127C224.016 328.713 223.623 329.422 223.623 330.254H220.354C220.354 329.305 220.688 328.391 221.355 327.512C222.035 326.621 222.949 325.918 224.098 325.402C225.258 324.887 226.529 324.629 227.912 324.629C230.104 324.629 231.82 325.18 233.062 326.281C234.305 327.371 234.949 328.877 234.996 330.799V339.553C234.996 341.299 235.219 342.688 235.664 343.719V344H232.254ZM226.857 341.521C227.877 341.521 228.844 341.258 229.758 340.73C230.672 340.203 231.334 339.518 231.744 338.674V334.771H229.195C225.211 334.771 223.219 335.938 223.219 338.27C223.219 339.289 223.559 340.086 224.238 340.66C224.918 341.234 225.791 341.521 226.857 341.521ZM251.168 338.955C251.168 338.076 250.834 337.396 250.166 336.916C249.51 336.424 248.355 336.002 246.703 335.65C245.062 335.299 243.756 334.877 242.783 334.385C241.822 333.893 241.107 333.307 240.639 332.627C240.182 331.947 239.953 331.139 239.953 330.201C239.953 328.643 240.609 327.324 241.922 326.246C243.246 325.168 244.934 324.629 246.984 324.629C249.141 324.629 250.887 325.186 252.223 326.299C253.57 327.412 254.244 328.836 254.244 330.57H250.975C250.975 329.68 250.594 328.912 249.832 328.268C249.082 327.623 248.133 327.301 246.984 327.301C245.801 327.301 244.875 327.559 244.207 328.074C243.539 328.59 243.205 329.264 243.205 330.096C243.205 330.881 243.516 331.473 244.137 331.871C244.758 332.27 245.877 332.65 247.494 333.014C249.123 333.377 250.441 333.811 251.449 334.314C252.457 334.818 253.201 335.428 253.682 336.143C254.174 336.846 254.42 337.707 254.42 338.727C254.42 340.426 253.74 341.791 252.381 342.822C251.021 343.842 249.258 344.352 247.09 344.352C245.566 344.352 244.219 344.082 243.047 343.543C241.875 343.004 240.955 342.254 240.287 341.293C239.631 340.32 239.303 339.271 239.303 338.146H242.555C242.613 339.236 243.047 340.104 243.855 340.748C244.676 341.381 245.754 341.697 247.09 341.697C248.32 341.697 249.305 341.451 250.043 340.959C250.793 340.455 251.168 339.787 251.168 338.955ZM270.398 344C270.211 343.625 270.059 342.957 269.941 341.996C268.43 343.566 266.625 344.352 264.527 344.352C262.652 344.352 261.111 343.824 259.904 342.77C258.709 341.703 258.111 340.355 258.111 338.727C258.111 336.746 258.861 335.211 260.361 334.121C261.873 333.02 263.994 332.469 266.725 332.469H269.889V330.975C269.889 329.838 269.549 328.936 268.869 328.268C268.189 327.588 267.188 327.248 265.863 327.248C264.703 327.248 263.73 327.541 262.945 328.127C262.16 328.713 261.768 329.422 261.768 330.254H258.498C258.498 329.305 258.832 328.391 259.5 327.512C260.18 326.621 261.094 325.918 262.242 325.402C263.402 324.887 264.674 324.629 266.057 324.629C268.248 324.629 269.965 325.18 271.207 326.281C272.449 327.371 273.094 328.877 273.141 330.799V339.553C273.141 341.299 273.363 342.688 273.809 343.719V344H270.398ZM265.002 341.521C266.021 341.521 266.988 341.258 267.902 340.73C268.816 340.203 269.479 339.518 269.889 338.674V334.771H267.34C263.355 334.771 261.363 335.938 261.363 338.27C261.363 339.289 261.703 340.086 262.383 340.66C263.062 341.234 263.936 341.521 265.002 341.521ZM168.533 376.701C168.533 379.607 167.865 381.945 166.529 383.715C165.193 385.473 163.4 386.352 161.15 386.352C158.748 386.352 156.891 385.502 155.578 383.803L155.42 386H152.432V359H155.684V369.072C156.996 367.443 158.807 366.629 161.115 366.629C163.424 366.629 165.234 367.502 166.547 369.248C167.871 370.994 168.533 373.385 168.533 376.42V376.701ZM165.281 376.332C165.281 374.117 164.854 372.406 163.998 371.199C163.143 369.992 161.912 369.389 160.307 369.389C158.162 369.389 156.621 370.385 155.684 372.377V380.604C156.68 382.596 158.232 383.592 160.342 383.592C161.9 383.592 163.113 382.988 163.98 381.781C164.848 380.574 165.281 378.758 165.281 376.332ZM171.785 376.314C171.785 374.451 172.148 372.775 172.875 371.287C173.613 369.799 174.633 368.65 175.934 367.842C177.246 367.033 178.74 366.629 180.416 366.629C183.006 366.629 185.098 367.525 186.691 369.318C188.297 371.111 189.1 373.496 189.1 376.473V376.701C189.1 378.553 188.742 380.217 188.027 381.693C187.324 383.158 186.311 384.301 184.986 385.121C183.674 385.941 182.162 386.352 180.451 386.352C177.873 386.352 175.781 385.455 174.176 383.662C172.582 381.869 171.785 379.496 171.785 376.543V376.314ZM175.055 376.701C175.055 378.811 175.541 380.504 176.514 381.781C177.498 383.059 178.811 383.697 180.451 383.697C182.104 383.697 183.416 383.053 184.389 381.764C185.361 380.463 185.848 378.646 185.848 376.314C185.848 374.229 185.35 372.541 184.354 371.252C183.369 369.951 182.057 369.301 180.416 369.301C178.811 369.301 177.516 369.939 176.531 371.217C175.547 372.494 175.055 374.322 175.055 376.701ZM204.92 386C204.732 385.625 204.58 384.957 204.463 383.996C202.951 385.566 201.146 386.352 199.049 386.352C197.174 386.352 195.633 385.824 194.426 384.77C193.23 383.703 192.633 382.355 192.633 380.727C192.633 378.746 193.383 377.211 194.883 376.121C196.395 375.02 198.516 374.469 201.246 374.469H204.41V372.975C204.41 371.838 204.07 370.936 203.391 370.268C202.711 369.588 201.709 369.248 200.385 369.248C199.225 369.248 198.252 369.541 197.467 370.127C196.682 370.713 196.289 371.422 196.289 372.254H193.02C193.02 371.305 193.354 370.391 194.021 369.512C194.701 368.621 195.615 367.918 196.764 367.402C197.924 366.887 199.195 366.629 200.578 366.629C202.77 366.629 204.486 367.18 205.729 368.281C206.971 369.371 207.615 370.877 207.662 372.799V381.553C207.662 383.299 207.885 384.688 208.33 385.719V386H204.92ZM199.523 383.521C200.543 383.521 201.51 383.258 202.424 382.73C203.338 382.203 204 381.518 204.41 380.674V376.771H201.861C197.877 376.771 195.885 377.938 195.885 380.27C195.885 381.289 196.225 382.086 196.904 382.66C197.584 383.234 198.457 383.521 199.523 383.521ZM221.953 369.898C221.461 369.816 220.928 369.775 220.354 369.775C218.221 369.775 216.773 370.684 216.012 372.5V386H212.76V366.98H215.924L215.977 369.178C217.043 367.479 218.555 366.629 220.512 366.629C221.145 366.629 221.625 366.711 221.953 366.875V369.898ZM223.816 376.332C223.816 373.414 224.508 371.07 225.891 369.301C227.273 367.52 229.084 366.629 231.322 366.629C233.549 366.629 235.312 367.391 236.613 368.914V359H239.865V386H236.877L236.719 383.961C235.418 385.555 233.607 386.352 231.287 386.352C229.084 386.352 227.285 385.449 225.891 383.645C224.508 381.84 223.816 379.484 223.816 376.578V376.332ZM227.068 376.701C227.068 378.857 227.514 380.545 228.404 381.764C229.295 382.982 230.525 383.592 232.096 383.592C234.158 383.592 235.664 382.666 236.613 380.814V372.078C235.641 370.285 234.146 369.389 232.131 369.389C230.537 369.389 229.295 370.004 228.404 371.234C227.514 372.465 227.068 374.287 227.068 376.701ZM256.002 380.955C256.002 380.076 255.668 379.396 255 378.916C254.344 378.424 253.189 378.002 251.537 377.65C249.896 377.299 248.59 376.877 247.617 376.385C246.656 375.893 245.941 375.307 245.473 374.627C245.016 373.947 244.787 373.139 244.787 372.201C244.787 370.643 245.443 369.324 246.756 368.246C248.08 367.168 249.768 366.629 251.818 366.629C253.975 366.629 255.721 367.186 257.057 368.299C258.404 369.412 259.078 370.836 259.078 372.57H255.809C255.809 371.68 255.428 370.912 254.666 370.268C253.916 369.623 252.967 369.301 251.818 369.301C250.635 369.301 249.709 369.559 249.041 370.074C248.373 370.59 248.039 371.264 248.039 372.096C248.039 372.881 248.35 373.473 248.971 373.871C249.592 374.27 250.711 374.65 252.328 375.014C253.957 375.377 255.275 375.811 256.283 376.314C257.291 376.818 258.035 377.428 258.516 378.143C259.008 378.846 259.254 379.707 259.254 380.727C259.254 382.426 258.574 383.791 257.215 384.822C255.855 385.842 254.092 386.352 251.924 386.352C250.4 386.352 249.053 386.082 247.881 385.543C246.709 385.004 245.789 384.254 245.121 383.293C244.465 382.32 244.137 381.271 244.137 380.146H247.389C247.447 381.236 247.881 382.104 248.689 382.748C249.51 383.381 250.588 383.697 251.924 383.697C253.154 383.697 254.139 383.451 254.877 382.959C255.627 382.455 256.002 381.787 256.002 380.955Z" fill="black"/>
<path id="Others*" d="M308.57 483.039C308.57 486.383 308.008 489.305 306.883 491.805C305.758 494.289 304.164 496.188 302.102 497.5C300.039 498.812 297.633 499.469 294.883 499.469C292.195 499.469 289.812 498.812 287.734 497.5C285.656 496.172 284.039 494.289 282.883 491.852C281.742 489.398 281.156 486.562 281.125 483.344V480.883C281.125 477.602 281.695 474.703 282.836 472.188C283.977 469.672 285.586 467.75 287.664 466.422C289.758 465.078 292.148 464.406 294.836 464.406C297.57 464.406 299.977 465.07 302.055 466.398C304.148 467.711 305.758 469.625 306.883 472.141C308.008 474.641 308.57 477.555 308.57 480.883V483.039ZM304.094 480.836C304.094 476.789 303.281 473.688 301.656 471.531C300.031 469.359 297.758 468.273 294.836 468.273C291.992 468.273 289.75 469.359 288.109 471.531C286.484 473.688 285.648 476.688 285.602 480.531V483.039C285.602 486.961 286.422 490.047 288.062 492.297C289.719 494.531 291.992 495.648 294.883 495.648C297.789 495.648 300.039 494.594 301.633 492.484C303.227 490.359 304.047 487.32 304.094 483.367V480.836ZM320.523 467.5V473.641H325.258V476.992H320.523V492.719C320.523 493.734 320.734 494.5 321.156 495.016C321.578 495.516 322.297 495.766 323.312 495.766C323.812 495.766 324.5 495.672 325.375 495.484V499C324.234 499.312 323.125 499.469 322.047 499.469C320.109 499.469 318.648 498.883 317.664 497.711C316.68 496.539 316.188 494.875 316.188 492.719V476.992H311.57V473.641H316.188V467.5H320.523ZM334.68 476.711C336.602 474.352 339.102 473.172 342.18 473.172C347.539 473.172 350.242 476.195 350.289 482.242V499H345.953V482.219C345.938 480.391 345.516 479.039 344.688 478.164C343.875 477.289 342.602 476.852 340.867 476.852C339.461 476.852 338.227 477.227 337.164 477.977C336.102 478.727 335.273 479.711 334.68 480.93V499H330.344V463H334.68V476.711ZM367.305 499.469C363.867 499.469 361.07 498.344 358.914 496.094C356.758 493.828 355.68 490.805 355.68 487.023V486.227C355.68 483.711 356.156 481.469 357.109 479.5C358.078 477.516 359.422 475.969 361.141 474.859C362.875 473.734 364.75 473.172 366.766 473.172C370.062 473.172 372.625 474.258 374.453 476.43C376.281 478.602 377.195 481.711 377.195 485.758V487.562H360.016C360.078 490.062 360.805 492.086 362.195 493.633C363.602 495.164 365.383 495.93 367.539 495.93C369.07 495.93 370.367 495.617 371.43 494.992C372.492 494.367 373.422 493.539 374.219 492.508L376.867 494.57C374.742 497.836 371.555 499.469 367.305 499.469ZM366.766 476.734C365.016 476.734 363.547 477.375 362.359 478.656C361.172 479.922 360.438 481.703 360.156 484H372.859V483.672C372.734 481.469 372.141 479.766 371.078 478.562C370.016 477.344 368.578 476.734 366.766 476.734ZM394.492 477.531C393.836 477.422 393.125 477.367 392.359 477.367C389.516 477.367 387.586 478.578 386.57 481V499H382.234V473.641H386.453L386.523 476.57C387.945 474.305 389.961 473.172 392.57 473.172C393.414 473.172 394.055 473.281 394.492 473.5V477.531ZM413.266 492.273C413.266 491.102 412.82 490.195 411.93 489.555C411.055 488.898 409.516 488.336 407.312 487.867C405.125 487.398 403.383 486.836 402.086 486.18C400.805 485.523 399.852 484.742 399.227 483.836C398.617 482.93 398.312 481.852 398.312 480.602C398.312 478.523 399.188 476.766 400.938 475.328C402.703 473.891 404.953 473.172 407.688 473.172C410.562 473.172 412.891 473.914 414.672 475.398C416.469 476.883 417.367 478.781 417.367 481.094H413.008C413.008 479.906 412.5 478.883 411.484 478.023C410.484 477.164 409.219 476.734 407.688 476.734C406.109 476.734 404.875 477.078 403.984 477.766C403.094 478.453 402.648 479.352 402.648 480.461C402.648 481.508 403.062 482.297 403.891 482.828C404.719 483.359 406.211 483.867 408.367 484.352C410.539 484.836 412.297 485.414 413.641 486.086C414.984 486.758 415.977 487.57 416.617 488.523C417.273 489.461 417.602 490.609 417.602 491.969C417.602 494.234 416.695 496.055 414.883 497.43C413.07 498.789 410.719 499.469 407.828 499.469C405.797 499.469 404 499.109 402.438 498.391C400.875 497.672 399.648 496.672 398.758 495.391C397.883 494.094 397.445 492.695 397.445 491.195H401.781C401.859 492.648 402.438 493.805 403.516 494.664C404.609 495.508 406.047 495.93 407.828 495.93C409.469 495.93 410.781 495.602 411.766 494.945C412.766 494.273 413.266 493.383 413.266 492.273ZM427.703 475.961L420.625 473.852L421.703 470.312L428.781 472.938L428.57 464.875H432.156L431.922 473.055L438.883 470.477L439.961 474.039L432.766 476.172L437.406 482.523L434.5 484.727L430.141 477.977L425.922 484.562L422.992 482.43L427.703 475.961Z" fill="black"/>
<path id="CISCE" d="M469.867 111.172C469.445 114.781 468.109 117.57 465.859 119.539C463.625 121.492 460.648 122.469 456.93 122.469C452.898 122.469 449.664 121.023 447.227 118.133C444.805 115.242 443.594 111.375 443.594 106.531V103.25C443.594 100.078 444.156 97.2891 445.281 94.8828C446.422 92.4766 448.031 90.6328 450.109 89.3516C452.188 88.0547 454.594 87.4062 457.328 87.4062C460.953 87.4062 463.859 88.4219 466.047 90.4531C468.234 92.4688 469.508 95.2656 469.867 98.8438H465.344C464.953 96.125 464.102 94.1562 462.789 92.9375C461.492 91.7188 459.672 91.1094 457.328 91.1094C454.453 91.1094 452.195 92.1719 450.555 94.2969C448.93 96.4219 448.117 99.4453 448.117 103.367V106.672C448.117 110.375 448.891 113.32 450.438 115.508C451.984 117.695 454.148 118.789 456.93 118.789C459.43 118.789 461.344 118.227 462.672 117.102C464.016 115.961 464.906 113.984 465.344 111.172H469.867ZM480.859 122H476.359V87.875H480.859V122ZM499.164 106.789C495.305 105.68 492.492 104.32 490.727 102.711C488.977 101.086 488.102 99.0859 488.102 96.7109C488.102 94.0234 489.172 91.8047 491.312 90.0547C493.469 88.2891 496.266 87.4062 499.703 87.4062C502.047 87.4062 504.133 87.8594 505.961 88.7656C507.805 89.6719 509.227 90.9219 510.227 92.5156C511.242 94.1094 511.75 95.8516 511.75 97.7422H507.227C507.227 95.6797 506.57 94.0625 505.258 92.8906C503.945 91.7031 502.094 91.1094 499.703 91.1094C497.484 91.1094 495.75 91.6016 494.5 92.5859C493.266 93.5547 492.648 94.9062 492.648 96.6406C492.648 98.0312 493.234 99.2109 494.406 100.18C495.594 101.133 497.602 102.008 500.43 102.805C503.273 103.602 505.492 104.484 507.086 105.453C508.695 106.406 509.883 107.523 510.648 108.805C511.43 110.086 511.82 111.594 511.82 113.328C511.82 116.094 510.742 118.312 508.586 119.984C506.43 121.641 503.547 122.469 499.938 122.469C497.594 122.469 495.406 122.023 493.375 121.133C491.344 120.227 489.773 118.992 488.664 117.43C487.57 115.867 487.023 114.094 487.023 112.109H491.547C491.547 114.172 492.305 115.805 493.82 117.008C495.352 118.195 497.391 118.789 499.938 118.789C502.312 118.789 504.133 118.305 505.398 117.336C506.664 116.367 507.297 115.047 507.297 113.375C507.297 111.703 506.711 110.414 505.539 109.508C504.367 108.586 502.242 107.68 499.164 106.789ZM542.711 111.172C542.289 114.781 540.953 117.57 538.703 119.539C536.469 121.492 533.492 122.469 529.773 122.469C525.742 122.469 522.508 121.023 520.07 118.133C517.648 115.242 516.438 111.375 516.438 106.531V103.25C516.438 100.078 517 97.2891 518.125 94.8828C519.266 92.4766 520.875 90.6328 522.953 89.3516C525.031 88.0547 527.438 87.4062 530.172 87.4062C533.797 87.4062 536.703 88.4219 538.891 90.4531C541.078 92.4688 542.352 95.2656 542.711 98.8438H538.188C537.797 96.125 536.945 94.1562 535.633 92.9375C534.336 91.7188 532.516 91.1094 530.172 91.1094C527.297 91.1094 525.039 92.1719 523.398 94.2969C521.773 96.4219 520.961 99.4453 520.961 103.367V106.672C520.961 110.375 521.734 113.32 523.281 115.508C524.828 117.695 526.992 118.789 529.773 118.789C532.273 118.789 534.188 118.227 535.516 117.102C536.859 115.961 537.75 113.984 538.188 111.172H542.711ZM568.164 106.227H553.375V118.32H570.555V122H548.875V87.875H570.32V91.5781H553.375V102.547H568.164V106.227Z" fill="black"/>
<path id="IB" d="M493.797 243H489.297V208.875H493.797V243ZM502.047 243V208.875H513.203C516.906 208.875 519.688 209.641 521.547 211.172C523.422 212.703 524.359 214.969 524.359 217.969C524.359 219.562 523.906 220.977 523 222.211C522.094 223.43 520.859 224.375 519.297 225.047C521.141 225.562 522.594 226.547 523.656 228C524.734 229.438 525.273 231.156 525.273 233.156C525.273 236.219 524.281 238.625 522.297 240.375C520.312 242.125 517.508 243 513.883 243H502.047ZM506.547 227.039V239.32H513.977C516.07 239.32 517.719 238.781 518.922 237.703C520.141 236.609 520.75 235.109 520.75 233.203C520.75 229.094 518.516 227.039 514.047 227.039H506.547ZM506.547 223.43H513.344C515.312 223.43 516.883 222.938 518.055 221.953C519.242 220.969 519.836 219.633 519.836 217.945C519.836 216.07 519.289 214.711 518.195 213.867C517.102 213.008 515.438 212.578 513.203 212.578H506.547V223.43Z" fill="black"/>
<path id="State boards" d="M475.211 332.592C472.316 331.76 470.207 330.74 468.883 329.533C467.57 328.314 466.914 326.814 466.914 325.033C466.914 323.018 467.717 321.354 469.322 320.041C470.939 318.717 473.037 318.055 475.615 318.055C477.373 318.055 478.938 318.395 480.309 319.074C481.691 319.754 482.758 320.691 483.508 321.887C484.27 323.082 484.65 324.389 484.65 325.807H481.258C481.258 324.26 480.766 323.047 479.781 322.168C478.797 321.277 477.408 320.832 475.615 320.832C473.951 320.832 472.65 321.201 471.713 321.939C470.787 322.666 470.324 323.68 470.324 324.98C470.324 326.023 470.764 326.908 471.643 327.635C472.533 328.35 474.039 329.006 476.16 329.604C478.293 330.201 479.957 330.863 481.152 331.59C482.359 332.305 483.25 333.143 483.824 334.104C484.41 335.064 484.703 336.195 484.703 337.496C484.703 339.57 483.895 341.234 482.277 342.488C480.66 343.73 478.498 344.352 475.791 344.352C474.033 344.352 472.393 344.018 470.869 343.35C469.346 342.67 468.168 341.744 467.336 340.572C466.516 339.4 466.105 338.07 466.105 336.582H469.498C469.498 338.129 470.066 339.354 471.203 340.256C472.352 341.146 473.881 341.592 475.791 341.592C477.572 341.592 478.938 341.229 479.887 340.502C480.836 339.775 481.311 338.785 481.311 337.531C481.311 336.277 480.871 335.311 479.992 334.631C479.113 333.939 477.52 333.26 475.211 332.592ZM492.947 320.375V324.98H496.498V327.494H492.947V339.289C492.947 340.051 493.105 340.625 493.422 341.012C493.738 341.387 494.277 341.574 495.039 341.574C495.414 341.574 495.93 341.504 496.586 341.363V344C495.73 344.234 494.898 344.352 494.09 344.352C492.637 344.352 491.541 343.912 490.803 343.033C490.064 342.154 489.695 340.906 489.695 339.289V327.494H486.232V324.98H489.695V320.375H492.947ZM512.055 344C511.867 343.625 511.715 342.957 511.598 341.996C510.086 343.566 508.281 344.352 506.184 344.352C504.309 344.352 502.768 343.824 501.561 342.77C500.365 341.703 499.768 340.355 499.768 338.727C499.768 336.746 500.518 335.211 502.018 334.121C503.529 333.02 505.65 332.469 508.381 332.469H511.545V330.975C511.545 329.838 511.205 328.936 510.525 328.268C509.846 327.588 508.844 327.248 507.52 327.248C506.359 327.248 505.387 327.541 504.602 328.127C503.816 328.713 503.424 329.422 503.424 330.254H500.154C500.154 329.305 500.488 328.391 501.156 327.512C501.836 326.621 502.75 325.918 503.898 325.402C505.059 324.887 506.33 324.629 507.713 324.629C509.904 324.629 511.621 325.18 512.863 326.281C514.105 327.371 514.75 328.877 514.797 330.799V339.553C514.797 341.299 515.02 342.688 515.465 343.719V344H512.055ZM506.658 341.521C507.678 341.521 508.645 341.258 509.559 340.73C510.473 340.203 511.135 339.518 511.545 338.674V334.771H508.996C505.012 334.771 503.02 335.938 503.02 338.27C503.02 339.289 503.359 340.086 504.039 340.66C504.719 341.234 505.592 341.521 506.658 341.521ZM524.307 320.375V324.98H527.857V327.494H524.307V339.289C524.307 340.051 524.465 340.625 524.781 341.012C525.098 341.387 525.637 341.574 526.398 341.574C526.773 341.574 527.289 341.504 527.945 341.363V344C527.09 344.234 526.258 344.352 525.449 344.352C523.996 344.352 522.9 343.912 522.162 343.033C521.424 342.154 521.055 340.906 521.055 339.289V327.494H517.592V324.98H521.055V320.375H524.307ZM539.564 344.352C536.986 344.352 534.889 343.508 533.271 341.82C531.654 340.121 530.846 337.854 530.846 335.018V334.42C530.846 332.533 531.203 330.852 531.918 329.375C532.645 327.887 533.652 326.727 534.941 325.895C536.242 325.051 537.648 324.629 539.16 324.629C541.633 324.629 543.555 325.443 544.926 327.072C546.297 328.701 546.982 331.033 546.982 334.068V335.422H534.098C534.145 337.297 534.689 338.814 535.732 339.975C536.787 341.123 538.123 341.697 539.74 341.697C540.889 341.697 541.861 341.463 542.658 340.994C543.455 340.525 544.152 339.904 544.75 339.131L546.736 340.678C545.143 343.127 542.752 344.352 539.564 344.352ZM539.16 327.301C537.848 327.301 536.746 327.781 535.855 328.742C534.965 329.691 534.414 331.027 534.203 332.75H543.73V332.504C543.637 330.852 543.191 329.574 542.395 328.672C541.598 327.758 540.52 327.301 539.16 327.301ZM469.533 376.701C469.533 379.607 468.865 381.945 467.529 383.715C466.193 385.473 464.4 386.352 462.15 386.352C459.748 386.352 457.891 385.502 456.578 383.803L456.42 386H453.432V359H456.684V369.072C457.996 367.443 459.807 366.629 462.115 366.629C464.424 366.629 466.234 367.502 467.547 369.248C468.871 370.994 469.533 373.385 469.533 376.42V376.701ZM466.281 376.332C466.281 374.117 465.854 372.406 464.998 371.199C464.143 369.992 462.912 369.389 461.307 369.389C459.162 369.389 457.621 370.385 456.684 372.377V380.604C457.68 382.596 459.232 383.592 461.342 383.592C462.9 383.592 464.113 382.988 464.98 381.781C465.848 380.574 466.281 378.758 466.281 376.332ZM472.785 376.314C472.785 374.451 473.148 372.775 473.875 371.287C474.613 369.799 475.633 368.65 476.934 367.842C478.246 367.033 479.74 366.629 481.416 366.629C484.006 366.629 486.098 367.525 487.691 369.318C489.297 371.111 490.1 373.496 490.1 376.473V376.701C490.1 378.553 489.742 380.217 489.027 381.693C488.324 383.158 487.311 384.301 485.986 385.121C484.674 385.941 483.162 386.352 481.451 386.352C478.873 386.352 476.781 385.455 475.176 383.662C473.582 381.869 472.785 379.496 472.785 376.543V376.314ZM476.055 376.701C476.055 378.811 476.541 380.504 477.514 381.781C478.498 383.059 479.811 383.697 481.451 383.697C483.104 383.697 484.416 383.053 485.389 381.764C486.361 380.463 486.848 378.646 486.848 376.314C486.848 374.229 486.35 372.541 485.354 371.252C484.369 369.951 483.057 369.301 481.416 369.301C479.811 369.301 478.516 369.939 477.531 371.217C476.547 372.494 476.055 374.322 476.055 376.701ZM505.92 386C505.732 385.625 505.58 384.957 505.463 383.996C503.951 385.566 502.146 386.352 500.049 386.352C498.174 386.352 496.633 385.824 495.426 384.77C494.23 383.703 493.633 382.355 493.633 380.727C493.633 378.746 494.383 377.211 495.883 376.121C497.395 375.02 499.516 374.469 502.246 374.469H505.41V372.975C505.41 371.838 505.07 370.936 504.391 370.268C503.711 369.588 502.709 369.248 501.385 369.248C500.225 369.248 499.252 369.541 498.467 370.127C497.682 370.713 497.289 371.422 497.289 372.254H494.02C494.02 371.305 494.354 370.391 495.021 369.512C495.701 368.621 496.615 367.918 497.764 367.402C498.924 366.887 500.195 366.629 501.578 366.629C503.77 366.629 505.486 367.18 506.729 368.281C507.971 369.371 508.615 370.877 508.662 372.799V381.553C508.662 383.299 508.885 384.688 509.33 385.719V386H505.92ZM500.523 383.521C501.543 383.521 502.51 383.258 503.424 382.73C504.338 382.203 505 381.518 505.41 380.674V376.771H502.861C498.877 376.771 496.885 377.938 496.885 380.27C496.885 381.289 497.225 382.086 497.904 382.66C498.584 383.234 499.457 383.521 500.523 383.521ZM522.953 369.898C522.461 369.816 521.928 369.775 521.354 369.775C519.221 369.775 517.773 370.684 517.012 372.5V386H513.76V366.98H516.924L516.977 369.178C518.043 367.479 519.555 366.629 521.512 366.629C522.145 366.629 522.625 366.711 522.953 366.875V369.898ZM524.816 376.332C524.816 373.414 525.508 371.07 526.891 369.301C528.273 367.52 530.084 366.629 532.322 366.629C534.549 366.629 536.312 367.391 537.613 368.914V359H540.865V386H537.877L537.719 383.961C536.418 385.555 534.607 386.352 532.287 386.352C530.084 386.352 528.285 385.449 526.891 383.645C525.508 381.84 524.816 379.484 524.816 376.578V376.332ZM528.068 376.701C528.068 378.857 528.514 380.545 529.404 381.764C530.295 382.982 531.525 383.592 533.096 383.592C535.158 383.592 536.664 382.666 537.613 380.814V372.078C536.641 370.285 535.146 369.389 533.131 369.389C531.537 369.389 530.295 370.004 529.404 371.234C528.514 372.465 528.068 374.287 528.068 376.701ZM557.002 380.955C557.002 380.076 556.668 379.396 556 378.916C555.344 378.424 554.189 378.002 552.537 377.65C550.896 377.299 549.59 376.877 548.617 376.385C547.656 375.893 546.941 375.307 546.473 374.627C546.016 373.947 545.787 373.139 545.787 372.201C545.787 370.643 546.443 369.324 547.756 368.246C549.08 367.168 550.768 366.629 552.818 366.629C554.975 366.629 556.721 367.186 558.057 368.299C559.404 369.412 560.078 370.836 560.078 372.57H556.809C556.809 371.68 556.428 370.912 555.666 370.268C554.916 369.623 553.967 369.301 552.818 369.301C551.635 369.301 550.709 369.559 550.041 370.074C549.373 370.59 549.039 371.264 549.039 372.096C549.039 372.881 549.35 373.473 549.971 373.871C550.592 374.27 551.711 374.65 553.328 375.014C554.957 375.377 556.275 375.811 557.283 376.314C558.291 376.818 559.035 377.428 559.516 378.143C560.008 378.846 560.254 379.707 560.254 380.727C560.254 382.426 559.574 383.791 558.215 384.822C556.855 385.842 555.092 386.352 552.924 386.352C551.4 386.352 550.053 386.082 548.881 385.543C547.709 385.004 546.789 384.254 546.121 383.293C545.465 382.32 545.137 381.271 545.137 380.146H548.389C548.447 381.236 548.881 382.104 549.689 382.748C550.51 383.381 551.588 383.697 552.924 383.697C554.154 383.697 555.139 383.451 555.877 382.959C556.627 382.455 557.002 381.787 557.002 380.955Z" fill="black"/>
</g>
</svg>
