<svg width="720" height="576" viewBox="0 0 720 576" fill="none" xmlns="http://www.w3.org/2000/svg">
<g id="india-board 1" clip-path="url(#clip0)">
<g id="chart">
<rect id="bg" x="5" y="2" width="720" height="576" fill="white" fill-opacity="0.6"/>
<path id="Vector" d="M1 0H0V1H1V0Z" fill="white"/>
<g id="Group">
<g id="Vector_2">
<path d="M185.04 544.27V5.48001Z" fill="black"/>
<path d="M185.04 544.27V5.48001" stroke="#EBEBEB" stroke-width="0.53"/>
</g>
<g id="Vector_3">
<path d="M394.03 544.27V5.48001Z" fill="black"/>
<path d="M394.03 544.27V5.48001" stroke="#EBEBEB" stroke-width="0.53"/>
</g>
<g id="Vector_4">
<path d="M603.03 544.27V5.48001Z" fill="black"/>
<path d="M603.03 544.27V5.48001" stroke="#EBEBEB" stroke-width="0.53"/>
</g>
<g id="Vector_5">
<path d="M50.35 499.37H714.52Z" fill="black"/>
<path d="M50.35 499.37H714.52" stroke="#EBEBEB" stroke-width="1.07"/>
</g>
<g id="Vector_6">
<path d="M50.35 424.54H714.52Z" fill="black"/>
<path d="M50.35 424.54H714.52" stroke="#EBEBEB" stroke-width="1.07"/>
</g>
<g id="Vector_7">
<path d="M50.35 349.7H714.52Z" fill="black"/>
<path d="M50.35 349.7H714.52" stroke="#EBEBEB" stroke-width="1.07"/>
</g>
<g id="Vector_8">
<path d="M50.35 274.87H714.52Z" fill="black"/>
<path d="M50.35 274.87H714.52" stroke="#EBEBEB" stroke-width="1.07"/>
</g>
<g id="Vector_9">
<path d="M50.35 200.04H714.52Z" fill="black"/>
<path d="M50.35 200.04H714.52" stroke="#EBEBEB" stroke-width="1.07"/>
</g>
<g id="Vector_10">
<path d="M50.35 125.21H714.52Z" fill="black"/>
<path d="M50.35 125.21H714.52" stroke="#EBEBEB" stroke-width="1.07"/>
</g>
<g id="Vector_11">
<path d="M50.35 50.38H714.52Z" fill="black"/>
<path d="M50.35 50.38H714.52" stroke="#EBEBEB" stroke-width="1.07"/>
</g>
<g id="Vector_12">
<path d="M80.54 544.27V5.48001Z" fill="black"/>
<path d="M80.54 544.27V5.48001" stroke="#EBEBEB" stroke-width="1.07"/>
</g>
<g id="Vector_13">
<path d="M289.54 544.27V5.48001Z" fill="black"/>
<path d="M289.54 544.27V5.48001" stroke="#EBEBEB" stroke-width="1.07"/>
</g>
<g id="Vector_14">
<path d="M498.53 544.27V5.48001Z" fill="black"/>
<path d="M498.53 544.27V5.48001" stroke="#EBEBEB" stroke-width="1.07"/>
</g>
<g id="Vector_15">
<path d="M707.52 544.27V5.48001Z" fill="black"/>
<path d="M707.52 544.27V5.48001" stroke="#EBEBEB" stroke-width="1.07"/>
</g>
<path id="Vector_16" d="M684.33 31.67H80.54V69.09H684.33V31.67Z" fill="#99D594"/>
<path id="Vector_17" d="M89.43 480.66H80.54V518.08H89.43V480.66Z" fill="#EF5675"/>
<path id="Vector_18" d="M81.64 331H80.54V368.42H81.64V331Z" fill="#D53E4F"/>
<path id="Vector_19" d="M80.619 256.16H80.54V293.58H80.619V256.16Z" fill="#3288BD"/>
<path id="Vector_20" d="M80.71 405.83H80.54V443.25H80.71V405.83Z" fill="#595959"/>
<path id="Vector_21" d="M93.92 181.33H80.54V218.75H93.92V181.33Z" fill="#374C80"/>
<path id="Vector_22" d="M101.44 106.5H80.54V143.92H101.44V106.5Z" fill="#FEE08B"/>
<path id="14,44,,516" d="M665.368 52.99H664.464V46.9936L662.65 47.6599V46.8428L665.227 45.875H665.368V52.99ZM671.802 50.6119H672.785V51.3462H671.802V52.99H670.898V51.3462H667.673V50.8161L670.844 45.9091H671.802V50.6119ZM668.695 50.6119H670.898V47.1395L670.791 47.334L668.695 50.6119ZM673.66 54.4004L673.149 54.0502C673.454 53.6255 673.613 53.1878 673.626 52.7371V51.925H674.506V52.6301C674.506 52.9576 674.425 53.2851 674.263 53.6125C674.104 53.94 673.903 54.2026 673.66 54.4004ZM679.35 50.6119H680.332V51.3462H679.35V52.99H678.445V51.3462H675.221V50.8161L678.392 45.9091H679.35V50.6119ZM676.242 50.6119H678.445V47.1395L678.338 47.334L676.242 50.6119ZM684.943 50.6119H685.925V51.3462H684.943V52.99H684.038V51.3462H680.814V50.8161L683.985 45.9091H684.943V50.6119ZM681.835 50.6119H684.038V47.1395L683.931 47.334L681.835 50.6119ZM686.801 54.4004L686.29 54.0502C686.595 53.6255 686.754 53.1878 686.767 52.7371V51.925H687.647V52.6301C687.647 52.9576 687.566 53.2851 687.404 53.6125C687.245 53.94 687.044 54.2026 686.801 54.4004ZM688.756 54.4004L688.245 54.0502C688.55 53.6255 688.709 53.1878 688.722 52.7371V51.925H689.602V52.6301C689.602 52.9576 689.521 53.2851 689.359 53.6125C689.2 53.94 688.999 54.2026 688.756 54.4004ZM691.061 49.4398L691.421 45.9091H695.049V46.7407H692.184L691.97 48.6714C692.317 48.4672 692.711 48.365 693.152 48.365C693.797 48.365 694.31 48.579 694.689 49.007C695.068 49.4317 695.258 50.0072 695.258 50.7335C695.258 51.463 695.06 52.0384 694.665 52.4599C694.272 52.8782 693.723 53.0873 693.016 53.0873C692.39 53.0873 691.879 52.9138 691.484 52.5669C691.088 52.22 690.863 51.7402 690.808 51.1274H691.659C691.714 51.5327 691.858 51.839 692.092 52.0465C692.325 52.2508 692.633 52.3529 693.016 52.3529C693.434 52.3529 693.762 52.2103 693.998 51.925C694.238 51.6396 694.358 51.2457 694.358 50.7432C694.358 50.2698 694.228 49.8905 693.969 49.6052C693.713 49.3166 693.371 49.1723 692.943 49.1723C692.551 49.1723 692.243 49.2583 692.019 49.4301L691.781 49.6246L691.061 49.4398ZM699.197 52.99H698.293V46.9936L696.479 47.6599V46.8428L699.056 45.875H699.197V52.99ZM705.364 45.9042V46.6678H705.198C704.498 46.6807 703.94 46.8882 703.525 47.2903C703.11 47.6923 702.87 48.258 702.806 48.9875C703.179 48.5596 703.688 48.3456 704.333 48.3456C704.949 48.3456 705.44 48.5628 705.806 48.9973C706.176 49.4317 706.361 49.9926 706.361 50.68C706.361 51.4095 706.161 51.993 705.763 52.4307C705.367 52.8684 704.835 53.0873 704.167 53.0873C703.49 53.0873 702.94 52.8279 702.519 52.3092C702.097 51.7872 701.886 51.116 701.886 50.2958V49.9505C701.886 48.6471 702.164 47.6518 702.718 46.9644C703.276 46.2738 704.104 45.9204 705.203 45.9042H705.364ZM704.182 49.0945C703.874 49.0945 703.59 49.1869 703.331 49.3717C703.072 49.5565 702.892 49.7884 702.791 50.0672V50.3979C702.791 50.9815 702.922 51.4516 703.185 51.8082C703.448 52.1649 703.775 52.3432 704.167 52.3432C704.573 52.3432 704.89 52.1941 705.121 51.8958C705.354 51.5975 705.471 51.2068 705.471 50.7237C705.471 50.2374 705.352 49.8451 705.116 49.5468C704.882 49.2453 704.571 49.0945 704.182 49.0945Z" fill="black"/>
<path id="21,271" d="M99.2686 502H94.629V501.353L97.0801 498.63C97.4432 498.218 97.6929 497.884 97.829 497.628C97.9685 497.369 98.0382 497.101 98.0382 496.825C98.0382 496.456 97.9263 496.153 97.7026 495.916C97.4789 495.679 97.1806 495.561 96.8078 495.561C96.3603 495.561 96.0118 495.689 95.7621 495.945C95.5157 496.198 95.3925 496.552 95.3925 497.005H94.4928C94.4928 496.354 94.702 495.827 95.1202 495.425C95.5417 495.023 96.1042 494.822 96.8078 494.822C97.4659 494.822 97.9863 494.995 98.3689 495.342C98.7514 495.686 98.9427 496.145 98.9427 496.718C98.9427 497.416 98.4986 498.246 97.6102 499.208L95.7135 501.266H99.2686V502ZM103.179 502H102.274V496.004L100.46 496.67V495.853L103.038 494.885H103.179V502ZM105.878 503.41L105.367 503.06C105.672 502.635 105.831 502.198 105.844 501.747V500.935H106.724V501.64C106.724 501.968 106.643 502.295 106.481 502.623C106.322 502.95 106.121 503.213 105.878 503.41ZM112.409 502H107.77V501.353L110.221 498.63C110.584 498.218 110.833 497.884 110.97 497.628C111.109 497.369 111.179 497.101 111.179 496.825C111.179 496.456 111.067 496.153 110.843 495.916C110.619 495.679 110.321 495.561 109.948 495.561C109.501 495.561 109.152 495.689 108.903 495.945C108.656 496.198 108.533 496.552 108.533 497.005H107.633C107.633 496.354 107.843 495.827 108.261 495.425C108.682 495.023 109.245 494.822 109.948 494.822C110.607 494.822 111.127 494.995 111.509 495.342C111.892 495.686 112.083 496.145 112.083 496.718C112.083 497.416 111.639 498.246 110.751 499.208L108.854 501.266H112.409V502ZM117.934 495.425L115.001 502H114.058L116.981 495.658H113.148V494.919H117.934V495.425ZM121.912 502H121.007V496.004L119.193 496.67V495.853L121.771 494.885H121.912V502Z" fill="black"/>
<path id="2625" d="M92.228 352H87.5885V351.353L90.0396 348.63C90.4027 348.218 90.6523 347.884 90.7885 347.628C90.9279 347.369 90.9976 347.101 90.9976 346.825C90.9976 346.456 90.8858 346.153 90.6621 345.916C90.4383 345.679 90.1401 345.561 89.7672 345.561C89.3198 345.561 88.9713 345.689 88.7216 345.945C88.4752 346.198 88.352 346.552 88.352 347.005H87.4523C87.4523 346.354 87.6614 345.827 88.0796 345.425C88.5011 345.023 89.0637 344.822 89.7672 344.822C90.4254 344.822 90.9457 344.995 91.3283 345.342C91.7109 345.686 91.9022 346.145 91.9022 346.718C91.9022 347.416 91.458 348.246 90.5696 349.208L88.673 351.266H92.228V352ZM96.712 344.914V345.678H96.5466C95.8463 345.691 95.2887 345.898 94.8737 346.3C94.4587 346.702 94.2187 347.268 94.1539 347.998C94.5267 347.57 95.0358 347.356 95.681 347.356C96.297 347.356 96.7882 347.573 97.1545 348.007C97.5241 348.442 97.7089 349.003 97.7089 349.69C97.7089 350.419 97.5096 351.003 97.1108 351.441C96.7152 351.878 96.1835 352.097 95.5156 352.097C94.838 352.097 94.2884 351.838 93.867 351.319C93.4455 350.797 93.2347 350.126 93.2347 349.306V348.96C93.2347 347.657 93.5119 346.662 94.0663 345.974C94.624 345.284 95.4524 344.93 96.5515 344.914H96.712ZM95.5302 348.105C95.2222 348.105 94.9385 348.197 94.6791 348.382C94.4197 348.567 94.2398 348.798 94.1393 349.077V349.408C94.1393 349.991 94.2706 350.462 94.5332 350.818C94.7958 351.175 95.1233 351.353 95.5156 351.353C95.9209 351.353 96.2386 351.204 96.4688 350.906C96.7022 350.607 96.819 350.217 96.819 349.734C96.819 349.247 96.7006 348.855 96.4639 348.557C96.2305 348.255 95.9193 348.105 95.5302 348.105ZM103.414 352H98.774V351.353L101.225 348.63C101.588 348.218 101.838 347.884 101.974 347.628C102.113 347.369 102.183 347.101 102.183 346.825C102.183 346.456 102.071 346.153 101.848 345.916C101.624 345.679 101.326 345.561 100.953 345.561C100.505 345.561 100.157 345.689 99.9071 345.945C99.6607 346.198 99.5375 346.552 99.5375 347.005H98.6378C98.6378 346.354 98.847 345.827 99.2652 345.425C99.6867 345.023 100.249 344.822 100.953 344.822C101.611 344.822 102.131 344.995 102.514 345.342C102.896 345.686 103.088 346.145 103.088 346.718C103.088 347.416 102.644 348.246 101.755 349.208L99.8585 351.266H103.414V352ZM104.78 348.45L105.14 344.919H108.768V345.751H105.904L105.69 347.681C106.037 347.477 106.43 347.375 106.871 347.375C107.517 347.375 108.029 347.589 108.408 348.017C108.788 348.442 108.977 349.017 108.977 349.743C108.977 350.473 108.779 351.048 108.384 351.47C107.992 351.888 107.442 352.097 106.735 352.097C106.109 352.097 105.599 351.924 105.203 351.577C104.808 351.23 104.582 350.75 104.527 350.137H105.378C105.433 350.543 105.578 350.849 105.811 351.057C106.045 351.261 106.353 351.363 106.735 351.363C107.153 351.363 107.481 351.22 107.718 350.935C107.958 350.65 108.077 350.256 108.077 349.753C108.077 349.28 107.948 348.9 107.688 348.615C107.432 348.327 107.09 348.182 106.662 348.182C106.27 348.182 105.962 348.268 105.738 348.44L105.5 348.635L104.78 348.45Z" fill="black"/>
<path id="188" d="M87.5453 278H86.6408V272.004L84.8268 272.67V271.853L87.4043 270.885H87.5453V278ZM94.4755 272.767C94.4755 273.121 94.3815 273.435 94.1934 273.711C94.0086 273.986 93.7574 274.202 93.4396 274.357C93.8092 274.516 94.101 274.748 94.315 275.053C94.5322 275.358 94.6409 275.703 94.6409 276.089C94.6409 276.702 94.4334 277.189 94.0184 277.553C93.6066 277.916 93.0635 278.097 92.3892 278.097C91.7083 278.097 91.162 277.916 90.7502 277.553C90.3417 277.186 90.1375 276.698 90.1375 276.089C90.1375 275.706 90.2412 275.361 90.4487 275.053C90.6595 274.745 90.9496 274.511 91.3192 274.353C91.0047 274.197 90.7567 273.981 90.5752 273.706C90.3936 273.43 90.3028 273.117 90.3028 272.767C90.3028 272.171 90.4941 271.697 90.8767 271.347C91.2593 270.997 91.7634 270.822 92.3892 270.822C93.0117 270.822 93.5142 270.997 93.8968 271.347C94.2826 271.697 94.4755 272.171 94.4755 272.767ZM93.7412 276.069C93.7412 275.674 93.6147 275.351 93.3618 275.101C93.1122 274.852 92.7847 274.727 92.3794 274.727C91.9742 274.727 91.6483 274.85 91.4019 275.097C91.1588 275.343 91.0372 275.667 91.0372 276.069C91.0372 276.471 91.1555 276.787 91.3922 277.018C91.6321 277.248 91.9644 277.363 92.3892 277.363C92.8106 277.363 93.1413 277.248 93.3813 277.018C93.6212 276.784 93.7412 276.468 93.7412 276.069ZM92.3892 271.561C92.0358 271.561 91.7488 271.671 91.5284 271.892C91.3111 272.109 91.2025 272.406 91.2025 272.782C91.2025 273.142 91.3095 273.433 91.5235 273.657C91.7407 273.878 92.0293 273.988 92.3892 273.988C92.749 273.988 93.036 273.878 93.25 273.657C93.4672 273.433 93.5758 273.142 93.5758 272.782C93.5758 272.422 93.4639 272.128 93.2402 271.901C93.0165 271.674 92.7328 271.561 92.3892 271.561ZM100.068 272.767C100.068 273.121 99.9743 273.435 99.7862 273.711C99.6014 273.986 99.3501 274.202 99.0324 274.357C99.402 274.516 99.6938 274.748 99.9078 275.053C100.125 275.358 100.234 275.703 100.234 276.089C100.234 276.702 100.026 277.189 99.6111 277.553C99.1994 277.916 98.6563 278.097 97.9819 278.097C97.3011 278.097 96.7548 277.916 96.343 277.553C95.9345 277.186 95.7302 276.698 95.7302 276.089C95.7302 275.706 95.834 275.361 96.0415 275.053C96.2522 274.745 96.5424 274.511 96.912 274.353C96.5975 274.197 96.3495 273.981 96.1679 273.706C95.9864 273.43 95.8956 273.117 95.8956 272.767C95.8956 272.171 96.0869 271.697 96.4695 271.347C96.852 270.997 97.3562 270.822 97.9819 270.822C98.6044 270.822 99.107 270.997 99.4896 271.347C99.8754 271.697 100.068 272.171 100.068 272.767ZM99.3339 276.069C99.3339 275.674 99.2075 275.351 98.9546 275.101C98.7049 274.852 98.3775 274.727 97.9722 274.727C97.5669 274.727 97.2411 274.85 96.9947 275.097C96.7515 275.343 96.6299 275.667 96.6299 276.069C96.6299 276.471 96.7483 276.787 96.985 277.018C97.2249 277.248 97.5572 277.363 97.9819 277.363C98.4034 277.363 98.7341 277.248 98.974 277.018C99.214 276.784 99.3339 276.468 99.3339 276.069ZM97.9819 271.561C97.6285 271.561 97.3416 271.671 97.1211 271.892C96.9039 272.109 96.7953 272.406 96.7953 272.782C96.7953 273.142 96.9023 273.433 97.1163 273.657C97.3335 273.878 97.6221 273.988 97.9819 273.988C98.3418 273.988 98.6288 273.878 98.8427 273.657C99.06 273.433 99.1686 273.142 99.1686 272.782C99.1686 272.422 99.0567 272.128 98.833 271.901C98.6093 271.674 98.3256 271.561 97.9819 271.561Z" fill="black"/>
<path id="400" d="M91.3867 426.622H92.3691V427.356H91.3867V429H90.4821V427.356H87.2578V426.826L90.4286 421.919H91.3867V426.622ZM88.279 426.622H90.4821V423.149L90.3751 423.344L88.279 426.622ZM97.6214 425.98C97.6214 427.034 97.4415 427.817 97.0816 428.329C96.7217 428.841 96.1592 429.097 95.394 429.097C94.6386 429.097 94.0793 428.848 93.7162 428.348C93.3531 427.846 93.165 427.097 93.1521 426.101V424.9C93.1521 423.86 93.332 423.086 93.6919 422.58C94.0518 422.075 94.6159 421.822 95.3843 421.822C96.1462 421.822 96.7071 422.067 97.067 422.556C97.4269 423.042 97.6117 423.795 97.6214 424.813V425.98ZM96.7217 424.749C96.7217 423.988 96.6147 423.433 96.4007 423.086C96.1867 422.736 95.8479 422.561 95.3843 422.561C94.9239 422.561 94.5883 422.734 94.3776 423.081C94.1669 423.428 94.0582 423.962 94.0518 424.681V426.121C94.0518 426.886 94.162 427.452 94.3825 427.818C94.6062 428.181 94.9434 428.363 95.394 428.363C95.8382 428.363 96.1673 428.191 96.3813 427.847C96.5985 427.504 96.712 426.962 96.7217 426.223V424.749ZM103.214 425.98C103.214 427.034 103.034 427.817 102.674 428.329C102.314 428.841 101.752 429.097 100.987 429.097C100.231 429.097 99.6721 428.848 99.309 428.348C98.9458 427.846 98.7578 427.097 98.7448 426.101V424.9C98.7448 423.86 98.9248 423.086 99.2846 422.58C99.6445 422.075 100.209 421.822 100.977 421.822C101.739 421.822 102.3 422.067 102.66 422.556C103.02 423.042 103.204 423.795 103.214 424.813V425.98ZM102.314 424.749C102.314 423.988 102.207 423.433 101.993 423.086C101.78 422.736 101.441 422.561 100.977 422.561C100.517 422.561 100.181 422.734 99.9704 423.081C99.7596 423.428 99.651 423.962 99.6445 424.681V426.121C99.6445 426.886 99.7548 427.452 99.9752 427.818C100.199 428.181 100.536 428.363 100.987 428.363C101.431 428.363 101.76 428.191 101.974 427.847C102.191 427.504 102.305 426.962 102.314 426.223V424.749Z" fill="black"/>
<path id="32,000" d="M101.937 200.022H102.613C103.038 200.015 103.372 199.903 103.615 199.686C103.858 199.469 103.98 199.176 103.98 198.806C103.98 197.976 103.566 197.561 102.74 197.561C102.351 197.561 102.039 197.673 101.806 197.897C101.576 198.117 101.461 198.41 101.461 198.777H100.561C100.561 198.216 100.765 197.751 101.174 197.381C101.585 197.008 102.107 196.822 102.74 196.822C103.408 196.822 103.931 196.998 104.311 197.352C104.69 197.705 104.88 198.196 104.88 198.825C104.88 199.133 104.779 199.432 104.578 199.72C104.38 200.009 104.109 200.224 103.766 200.367C104.155 200.49 104.455 200.695 104.666 200.98C104.88 201.265 104.987 201.614 104.987 202.026C104.987 202.661 104.779 203.165 104.364 203.538C103.949 203.911 103.409 204.097 102.745 204.097C102.08 204.097 101.538 203.917 101.12 203.557C100.705 203.198 100.498 202.723 100.498 202.132H101.402C101.402 202.505 101.524 202.804 101.767 203.027C102.01 203.251 102.336 203.363 102.745 203.363C103.179 203.363 103.511 203.249 103.742 203.022C103.972 202.796 104.087 202.47 104.087 202.045C104.087 201.633 103.96 201.317 103.707 201.097C103.455 200.876 103.09 200.763 102.613 200.756H101.937V200.022ZM110.861 204H106.222V203.353L108.673 200.63C109.036 200.218 109.286 199.884 109.422 199.628C109.561 199.369 109.631 199.101 109.631 198.825C109.631 198.456 109.519 198.153 109.295 197.916C109.072 197.679 108.773 197.561 108.401 197.561C107.953 197.561 107.605 197.689 107.355 197.945C107.109 198.198 106.985 198.552 106.985 199.005H106.086C106.086 198.354 106.295 197.827 106.713 197.425C107.134 197.023 107.697 196.822 108.401 196.822C109.059 196.822 109.579 196.995 109.962 197.342C110.344 197.686 110.536 198.145 110.536 198.718C110.536 199.416 110.091 200.246 109.203 201.208L107.306 203.266H110.861V204ZM111.878 205.41L111.367 205.06C111.672 204.635 111.831 204.198 111.844 203.747V202.935H112.724V203.64C112.724 203.968 112.643 204.295 112.481 204.623C112.322 204.95 112.121 205.213 111.878 205.41ZM118.21 200.98C118.21 202.034 118.03 202.817 117.67 203.329C117.31 203.841 116.748 204.097 115.982 204.097C115.227 204.097 114.668 203.848 114.305 203.348C113.941 202.846 113.753 202.097 113.74 201.101V199.9C113.74 198.86 113.92 198.086 114.28 197.58C114.64 197.075 115.204 196.822 115.973 196.822C116.735 196.822 117.295 197.067 117.655 197.556C118.015 198.042 118.2 198.795 118.21 199.813V200.98ZM117.31 199.749C117.31 198.988 117.203 198.433 116.989 198.086C116.775 197.736 116.436 197.561 115.973 197.561C115.512 197.561 115.177 197.734 114.966 198.081C114.755 198.428 114.647 198.962 114.64 199.681V201.121C114.64 201.886 114.75 202.452 114.971 202.818C115.195 203.181 115.532 203.363 115.982 203.363C116.427 203.363 116.756 203.191 116.97 202.847C117.187 202.504 117.3 201.962 117.31 201.223V199.749ZM123.803 200.98C123.803 202.034 123.623 202.817 123.263 203.329C122.903 203.841 122.34 204.097 121.575 204.097C120.82 204.097 120.26 203.848 119.897 203.348C119.534 202.846 119.346 202.097 119.333 201.101V199.9C119.333 198.86 119.513 198.086 119.873 197.58C120.233 197.075 120.797 196.822 121.565 196.822C122.327 196.822 122.888 197.067 123.248 197.556C123.608 198.042 123.793 198.795 123.803 199.813V200.98ZM122.903 199.749C122.903 198.988 122.796 198.433 122.582 198.086C122.368 197.736 122.029 197.561 121.565 197.561C121.105 197.561 120.769 197.734 120.559 198.081C120.348 198.428 120.239 198.962 120.233 199.681V201.121C120.233 201.886 120.343 202.452 120.564 202.818C120.787 203.181 121.124 203.363 121.575 203.363C122.019 203.363 122.348 203.191 122.562 202.847C122.78 202.504 122.893 201.962 122.903 201.223V199.749ZM129.395 200.98C129.395 202.034 129.215 202.817 128.855 203.329C128.496 203.841 127.933 204.097 127.168 204.097C126.413 204.097 125.853 203.848 125.49 203.348C125.127 202.846 124.939 202.097 124.926 201.101V199.9C124.926 198.86 125.106 198.086 125.466 197.58C125.826 197.075 126.39 196.822 127.158 196.822C127.92 196.822 128.481 197.067 128.841 197.556C129.201 198.042 129.386 198.795 129.395 199.813V200.98ZM128.496 199.749C128.496 198.988 128.389 198.433 128.175 198.086C127.961 197.736 127.622 197.561 127.158 197.561C126.698 197.561 126.362 197.734 126.152 198.081C125.941 198.428 125.832 198.962 125.826 199.681V201.121C125.826 201.886 125.936 202.452 126.156 202.818C126.38 203.181 126.717 203.363 127.168 203.363C127.612 203.363 127.941 203.191 128.155 202.847C128.372 202.504 128.486 201.962 128.496 201.223V199.749Z" fill="black"/>
<path id="50,000" d="M103.042 124.45L103.402 120.919H107.03V121.751H104.166L103.952 123.681C104.299 123.477 104.693 123.375 105.134 123.375C105.779 123.375 106.291 123.589 106.67 124.017C107.05 124.442 107.239 125.017 107.239 125.743C107.239 126.473 107.042 127.048 106.646 127.47C106.254 127.888 105.704 128.097 104.997 128.097C104.372 128.097 103.861 127.924 103.465 127.577C103.07 127.23 102.845 126.75 102.789 126.137H103.641C103.696 126.543 103.84 126.849 104.073 127.057C104.307 127.261 104.615 127.363 104.997 127.363C105.416 127.363 105.743 127.22 105.98 126.935C106.22 126.65 106.34 126.256 106.34 125.753C106.34 125.28 106.21 124.9 105.951 124.615C105.694 124.327 105.352 124.182 104.924 124.182C104.532 124.182 104.224 124.268 104 124.44L103.762 124.635L103.042 124.45ZM112.662 124.98C112.662 126.034 112.482 126.817 112.122 127.329C111.762 127.841 111.2 128.097 110.435 128.097C109.679 128.097 109.12 127.848 108.757 127.348C108.394 126.846 108.206 126.097 108.193 125.101V123.9C108.193 122.86 108.373 122.086 108.732 121.58C109.092 121.075 109.656 120.822 110.425 120.822C111.187 120.822 111.748 121.067 112.108 121.556C112.467 122.042 112.652 122.795 112.662 123.813V124.98ZM111.762 123.749C111.762 122.988 111.655 122.433 111.441 122.086C111.227 121.736 110.888 121.561 110.425 121.561C109.964 121.561 109.629 121.734 109.418 122.081C109.207 122.428 109.099 122.962 109.092 123.681V125.121C109.092 125.886 109.203 126.452 109.423 126.818C109.647 127.181 109.984 127.363 110.435 127.363C110.879 127.363 111.208 127.191 111.422 126.847C111.639 126.504 111.753 125.962 111.762 125.223V123.749ZM113.878 129.41L113.367 129.06C113.672 128.635 113.831 128.198 113.844 127.747V126.935H114.724V127.64C114.724 127.968 114.643 128.295 114.481 128.623C114.322 128.95 114.121 129.213 113.878 129.41ZM120.21 124.98C120.21 126.034 120.03 126.817 119.67 127.329C119.31 127.841 118.748 128.097 117.982 128.097C117.227 128.097 116.668 127.848 116.305 127.348C115.941 126.846 115.753 126.097 115.74 125.101V123.9C115.74 122.86 115.92 122.086 116.28 121.58C116.64 121.075 117.204 120.822 117.973 120.822C118.735 120.822 119.295 121.067 119.655 121.556C120.015 122.042 120.2 122.795 120.21 123.813V124.98ZM119.31 123.749C119.31 122.988 119.203 122.433 118.989 122.086C118.775 121.736 118.436 121.561 117.973 121.561C117.512 121.561 117.177 121.734 116.966 122.081C116.755 122.428 116.647 122.962 116.64 123.681V125.121C116.64 125.886 116.75 126.452 116.971 126.818C117.195 127.181 117.532 127.363 117.982 127.363C118.427 127.363 118.756 127.191 118.97 126.847C119.187 126.504 119.3 125.962 119.31 125.223V123.749ZM125.803 124.98C125.803 126.034 125.623 126.817 125.263 127.329C124.903 127.841 124.34 128.097 123.575 128.097C122.82 128.097 122.26 127.848 121.897 127.348C121.534 126.846 121.346 126.097 121.333 125.101V123.9C121.333 122.86 121.513 122.086 121.873 121.58C122.233 121.075 122.797 120.822 123.565 120.822C124.327 120.822 124.888 121.067 125.248 121.556C125.608 122.042 125.793 122.795 125.803 123.813V124.98ZM124.903 123.749C124.903 122.988 124.796 122.433 124.582 122.086C124.368 121.736 124.029 121.561 123.565 121.561C123.105 121.561 122.769 121.734 122.559 122.081C122.348 122.428 122.239 122.962 122.233 123.681V125.121C122.233 125.886 122.343 126.452 122.564 126.818C122.787 127.181 123.124 127.363 123.575 127.363C124.019 127.363 124.348 127.191 124.562 126.847C124.78 126.504 124.893 125.962 124.903 125.223V123.749ZM131.395 124.98C131.395 126.034 131.215 126.817 130.855 127.329C130.496 127.841 129.933 128.097 129.168 128.097C128.413 128.097 127.853 127.848 127.49 127.348C127.127 126.846 126.939 126.097 126.926 125.101V123.9C126.926 122.86 127.106 122.086 127.466 121.58C127.826 121.075 128.39 120.822 129.158 120.822C129.92 120.822 130.481 121.067 130.841 121.556C131.201 122.042 131.386 122.795 131.395 123.813V124.98ZM130.496 123.749C130.496 122.988 130.389 122.433 130.175 122.086C129.961 121.736 129.622 121.561 129.158 121.561C128.698 121.561 128.362 121.734 128.152 122.081C127.941 122.428 127.832 122.962 127.826 123.681V125.121C127.826 125.886 127.936 126.452 128.156 126.818C128.38 127.181 128.717 127.363 129.168 127.363C129.612 127.363 129.941 127.191 130.155 126.847C130.372 126.504 130.486 125.962 130.496 125.223V123.749Z" fill="black"/>
</g>
<g id="Group_2">
<path id="CBSE" d="M22.0273 500.293C21.9219 501.195 21.5879 501.893 21.0254 502.385C20.4668 502.873 19.7227 503.117 18.793 503.117C17.7852 503.117 16.9766 502.756 16.3672 502.033C15.7617 501.311 15.459 500.344 15.459 499.133V498.312C15.459 497.52 15.5996 496.822 15.8809 496.221C16.166 495.619 16.5684 495.158 17.0879 494.838C17.6074 494.514 18.209 494.352 18.8926 494.352C19.7988 494.352 20.5254 494.605 21.0723 495.113C21.6191 495.617 21.9375 496.316 22.0273 497.211H20.8965C20.7988 496.531 20.5859 496.039 20.2578 495.734C19.9336 495.43 19.4785 495.277 18.8926 495.277C18.1738 495.277 17.6094 495.543 17.1992 496.074C16.793 496.605 16.5898 497.361 16.5898 498.342V499.168C16.5898 500.094 16.7832 500.83 17.1699 501.377C17.5566 501.924 18.0977 502.197 18.793 502.197C19.418 502.197 19.8965 502.057 20.2285 501.775C20.5645 501.49 20.7871 500.996 20.8965 500.293H22.0273ZM23.5684 503V494.469H26.3574C27.2832 494.469 27.9785 494.66 28.4434 495.043C28.9121 495.426 29.1465 495.992 29.1465 496.742C29.1465 497.141 29.0332 497.494 28.8066 497.803C28.5801 498.107 28.2715 498.344 27.8809 498.512C28.3418 498.641 28.7051 498.887 28.9707 499.25C29.2402 499.609 29.375 500.039 29.375 500.539C29.375 501.305 29.127 501.906 28.6309 502.344C28.1348 502.781 27.4336 503 26.5273 503H23.5684ZM24.6934 499.01V502.08H26.5508C27.0742 502.08 27.4863 501.945 27.7871 501.676C28.0918 501.402 28.2441 501.027 28.2441 500.551C28.2441 499.523 27.6855 499.01 26.5684 499.01H24.6934ZM24.6934 498.107H26.3926C26.8848 498.107 27.2773 497.984 27.5703 497.738C27.8672 497.492 28.0156 497.158 28.0156 496.736C28.0156 496.268 27.8789 495.928 27.6055 495.717C27.332 495.502 26.916 495.395 26.3574 495.395H24.6934V498.107ZM33.5586 499.197C32.5938 498.92 31.8906 498.58 31.4492 498.178C31.0117 497.771 30.793 497.271 30.793 496.678C30.793 496.006 31.0605 495.451 31.5957 495.014C32.1348 494.572 32.834 494.352 33.6934 494.352C34.2793 494.352 34.8008 494.465 35.2578 494.691C35.7188 494.918 36.0742 495.23 36.3242 495.629C36.5781 496.027 36.7051 496.463 36.7051 496.936H35.5742C35.5742 496.42 35.4102 496.016 35.082 495.723C34.7539 495.426 34.291 495.277 33.6934 495.277C33.1387 495.277 32.7051 495.4 32.3926 495.646C32.084 495.889 31.9297 496.227 31.9297 496.66C31.9297 497.008 32.0762 497.303 32.3691 497.545C32.666 497.783 33.168 498.002 33.875 498.201C34.5859 498.4 35.1406 498.621 35.5391 498.863C35.9414 499.102 36.2383 499.381 36.4297 499.701C36.625 500.021 36.7227 500.398 36.7227 500.832C36.7227 501.523 36.4531 502.078 35.9141 502.496C35.375 502.91 34.6543 503.117 33.752 503.117C33.166 503.117 32.6191 503.006 32.1113 502.783C31.6035 502.557 31.2109 502.248 30.9336 501.857C30.6602 501.467 30.5234 501.023 30.5234 500.527H31.6543C31.6543 501.043 31.8438 501.451 32.2227 501.752C32.6055 502.049 33.1152 502.197 33.752 502.197C34.3457 502.197 34.8008 502.076 35.1172 501.834C35.4336 501.592 35.5918 501.262 35.5918 500.844C35.5918 500.426 35.4453 500.104 35.1523 499.877C34.8594 499.646 34.3281 499.42 33.5586 499.197ZM42.9922 499.057H39.2949V502.08H43.5898V503H38.1699V494.469H43.5312V495.395H39.2949V498.137H42.9922V499.057Z" fill="#4D4D4D"/>
<path id="CIE" d="M30.3594 426.293C30.2539 427.195 29.9199 427.893 29.3574 428.385C28.7988 428.873 28.0547 429.117 27.125 429.117C26.1172 429.117 25.3086 428.756 24.6992 428.033C24.0938 427.311 23.791 426.344 23.791 425.133V424.312C23.791 423.52 23.9316 422.822 24.2129 422.221C24.498 421.619 24.9004 421.158 25.4199 420.838C25.9395 420.514 26.541 420.352 27.2246 420.352C28.1309 420.352 28.8574 420.605 29.4043 421.113C29.9512 421.617 30.2695 422.316 30.3594 423.211H29.2285C29.1309 422.531 28.918 422.039 28.5898 421.734C28.2656 421.43 27.8105 421.277 27.2246 421.277C26.5059 421.277 25.9414 421.543 25.5312 422.074C25.125 422.605 24.9219 423.361 24.9219 424.342V425.168C24.9219 426.094 25.1152 426.83 25.502 427.377C25.8887 427.924 26.4297 428.197 27.125 428.197C27.75 428.197 28.2285 428.057 28.5605 427.775C28.8965 427.49 29.1191 426.996 29.2285 426.293H30.3594ZM33.1074 429H31.9824V420.469H33.1074V429ZM39.9922 425.057H36.2949V428.08H40.5898V429H35.1699V420.469H40.5312V421.395H36.2949V424.137H39.9922V425.057Z" fill="#4D4D4D"/>
<path id="CISCE" d="M21.418 350.293C21.3125 351.195 20.9785 351.893 20.416 352.385C19.8574 352.873 19.1133 353.117 18.1836 353.117C17.1758 353.117 16.3672 352.756 15.7578 352.033C15.1523 351.311 14.8496 350.344 14.8496 349.133V348.312C14.8496 347.52 14.9902 346.822 15.2715 346.221C15.5566 345.619 15.959 345.158 16.4785 344.838C16.998 344.514 17.5996 344.352 18.2832 344.352C19.1895 344.352 19.916 344.605 20.4629 345.113C21.0098 345.617 21.3281 346.316 21.418 347.211H20.2871C20.1895 346.531 19.9766 346.039 19.6484 345.734C19.3242 345.43 18.8691 345.277 18.2832 345.277C17.5645 345.277 17 345.543 16.5898 346.074C16.1836 346.605 15.9805 347.361 15.9805 348.342V349.168C15.9805 350.094 16.1738 350.83 16.5605 351.377C16.9473 351.924 17.4883 352.197 18.1836 352.197C18.8086 352.197 19.2871 352.057 19.6191 351.775C19.9551 351.49 20.1777 350.996 20.2871 350.293H21.418ZM24.166 353H23.041V344.469H24.166V353ZM28.7422 349.197C27.7773 348.92 27.0742 348.58 26.6328 348.178C26.1953 347.771 25.9766 347.271 25.9766 346.678C25.9766 346.006 26.2441 345.451 26.7793 345.014C27.3184 344.572 28.0176 344.352 28.877 344.352C29.4629 344.352 29.9844 344.465 30.4414 344.691C30.9023 344.918 31.2578 345.23 31.5078 345.629C31.7617 346.027 31.8887 346.463 31.8887 346.936H30.7578C30.7578 346.42 30.5938 346.016 30.2656 345.723C29.9375 345.426 29.4746 345.277 28.877 345.277C28.3223 345.277 27.8887 345.4 27.5762 345.646C27.2676 345.889 27.1133 346.227 27.1133 346.66C27.1133 347.008 27.2598 347.303 27.5527 347.545C27.8496 347.783 28.3516 348.002 29.0586 348.201C29.7695 348.4 30.3242 348.621 30.7227 348.863C31.125 349.102 31.4219 349.381 31.6133 349.701C31.8086 350.021 31.9062 350.398 31.9062 350.832C31.9062 351.523 31.6367 352.078 31.0977 352.496C30.5586 352.91 29.8379 353.117 28.9355 353.117C28.3496 353.117 27.8027 353.006 27.2949 352.783C26.7871 352.557 26.3945 352.248 26.1172 351.857C25.8438 351.467 25.707 351.023 25.707 350.527H26.8379C26.8379 351.043 27.0273 351.451 27.4062 351.752C27.7891 352.049 28.2988 352.197 28.9355 352.197C29.5293 352.197 29.9844 352.076 30.3008 351.834C30.6172 351.592 30.7754 351.262 30.7754 350.844C30.7754 350.426 30.6289 350.104 30.3359 349.877C30.043 349.646 29.5117 349.42 28.7422 349.197ZM39.6289 350.293C39.5234 351.195 39.1895 351.893 38.627 352.385C38.0684 352.873 37.3242 353.117 36.3945 353.117C35.3867 353.117 34.5781 352.756 33.9688 352.033C33.3633 351.311 33.0605 350.344 33.0605 349.133V348.312C33.0605 347.52 33.2012 346.822 33.4824 346.221C33.7676 345.619 34.1699 345.158 34.6895 344.838C35.209 344.514 35.8105 344.352 36.4941 344.352C37.4004 344.352 38.127 344.605 38.6738 345.113C39.2207 345.617 39.5391 346.316 39.6289 347.211H38.498C38.4004 346.531 38.1875 346.039 37.8594 345.734C37.5352 345.43 37.0801 345.277 36.4941 345.277C35.7754 345.277 35.2109 345.543 34.8008 346.074C34.3945 346.605 34.1914 347.361 34.1914 348.342V349.168C34.1914 350.094 34.3848 350.83 34.7715 351.377C35.1582 351.924 35.6992 352.197 36.3945 352.197C37.0195 352.197 37.498 352.057 37.8301 351.775C38.166 351.49 38.3887 350.996 38.498 350.293H39.6289ZM45.9922 349.057H42.2949V352.08H46.5898V353H41.1699V344.469H46.5312V345.395H42.2949V348.137H45.9922V349.057Z" fill="#4D4D4D"/>
<path id="IB" d="M36.4512 279H35.3262V270.469H36.4512V279ZM38.5137 279V270.469H41.3027C42.2285 270.469 42.9238 270.66 43.3887 271.043C43.8574 271.426 44.0918 271.992 44.0918 272.742C44.0918 273.141 43.9785 273.494 43.752 273.803C43.5254 274.107 43.2168 274.344 42.8262 274.512C43.2871 274.641 43.6504 274.887 43.916 275.25C44.1855 275.609 44.3203 276.039 44.3203 276.539C44.3203 277.305 44.0723 277.906 43.5762 278.344C43.0801 278.781 42.3789 279 41.4727 279H38.5137ZM39.6387 275.01V278.08H41.4961C42.0195 278.08 42.4316 277.945 42.7324 277.676C43.0371 277.402 43.1895 277.027 43.1895 276.551C43.1895 275.523 42.6309 275.01 41.5137 275.01H39.6387ZM39.6387 274.107H41.3379C41.8301 274.107 42.2227 273.984 42.5156 273.738C42.8125 273.492 42.9609 273.158 42.9609 272.736C42.9609 272.268 42.8242 271.928 42.5508 271.717C42.2773 271.502 41.8613 271.395 41.3027 271.395H39.6387V274.107Z" fill="#4D4D4D"/>
<path id="Madrasa Boards" d="M16.4434 188.469L19.2324 195.43L22.0215 188.469H23.4805V197H22.3555V193.678L22.4609 190.092L19.6602 197H18.7988L16.0039 190.109L16.1152 193.678V197H14.9902V188.469H16.4434ZM29.2109 197C29.1484 196.875 29.0977 196.652 29.0586 196.332C28.5547 196.855 27.9531 197.117 27.2539 197.117C26.6289 197.117 26.1152 196.941 25.7129 196.59C25.3145 196.234 25.1152 195.785 25.1152 195.242C25.1152 194.582 25.3652 194.07 25.8652 193.707C26.3691 193.34 27.0762 193.156 27.9863 193.156H29.041V192.658C29.041 192.279 28.9277 191.979 28.7012 191.756C28.4746 191.529 28.1406 191.416 27.6992 191.416C27.3125 191.416 26.9883 191.514 26.7266 191.709C26.4648 191.904 26.334 192.141 26.334 192.418H25.2441C25.2441 192.102 25.3555 191.797 25.5781 191.504C25.8047 191.207 26.1094 190.973 26.4922 190.801C26.8789 190.629 27.3027 190.543 27.7637 190.543C28.4941 190.543 29.0664 190.727 29.4805 191.094C29.8945 191.457 30.1094 191.959 30.125 192.6V195.518C30.125 196.1 30.1992 196.562 30.3477 196.906V197H29.2109ZM27.4121 196.174C27.752 196.174 28.0742 196.086 28.3789 195.91C28.6836 195.734 28.9043 195.506 29.041 195.225V193.924H28.1914C26.8633 193.924 26.1992 194.312 26.1992 195.09C26.1992 195.43 26.3125 195.695 26.5391 195.887C26.7656 196.078 27.0566 196.174 27.4121 196.174ZM31.5605 193.777C31.5605 192.805 31.791 192.023 32.252 191.434C32.7129 190.84 33.3164 190.543 34.0625 190.543C34.8047 190.543 35.3926 190.797 35.8262 191.305V188H36.9102V197H35.9141L35.8613 196.32C35.4277 196.852 34.8242 197.117 34.0508 197.117C33.3164 197.117 32.7168 196.816 32.252 196.215C31.791 195.613 31.5605 194.828 31.5605 193.859V193.777ZM32.6445 193.9C32.6445 194.619 32.793 195.182 33.0898 195.588C33.3867 195.994 33.7969 196.197 34.3203 196.197C35.0078 196.197 35.5098 195.889 35.8262 195.271V192.359C35.502 191.762 35.0039 191.463 34.332 191.463C33.8008 191.463 33.3867 191.668 33.0898 192.078C32.793 192.488 32.6445 193.096 32.6445 193.9ZM41.6621 191.633C41.498 191.605 41.3203 191.592 41.1289 191.592C40.418 191.592 39.9355 191.895 39.6816 192.5V197H38.5977V190.66H39.6523L39.6699 191.393C40.0254 190.826 40.5293 190.543 41.1816 190.543C41.3926 190.543 41.5527 190.57 41.6621 190.625V191.633ZM46.3438 197C46.2812 196.875 46.2305 196.652 46.1914 196.332C45.6875 196.855 45.0859 197.117 44.3867 197.117C43.7617 197.117 43.248 196.941 42.8457 196.59C42.4473 196.234 42.248 195.785 42.248 195.242C42.248 194.582 42.498 194.07 42.998 193.707C43.502 193.34 44.209 193.156 45.1191 193.156H46.1738V192.658C46.1738 192.279 46.0605 191.979 45.834 191.756C45.6074 191.529 45.2734 191.416 44.832 191.416C44.4453 191.416 44.1211 191.514 43.8594 191.709C43.5977 191.904 43.4668 192.141 43.4668 192.418H42.377C42.377 192.102 42.4883 191.797 42.7109 191.504C42.9375 191.207 43.2422 190.973 43.625 190.801C44.0117 190.629 44.4355 190.543 44.8965 190.543C45.627 190.543 46.1992 190.727 46.6133 191.094C47.0273 191.457 47.2422 191.959 47.2578 192.6V195.518C47.2578 196.1 47.332 196.562 47.4805 196.906V197H46.3438ZM44.5449 196.174C44.8848 196.174 45.207 196.086 45.5117 195.91C45.8164 195.734 46.0371 195.506 46.1738 195.225V193.924H45.3242C43.9961 193.924 43.332 194.312 43.332 195.09C43.332 195.43 43.4453 195.695 43.6719 195.887C43.8984 196.078 44.1895 196.174 44.5449 196.174ZM52.6484 195.318C52.6484 195.025 52.5371 194.799 52.3145 194.639C52.0957 194.475 51.7109 194.334 51.1602 194.217C50.6133 194.1 50.1777 193.959 49.8535 193.795C49.5332 193.631 49.2949 193.436 49.1387 193.209C48.9863 192.982 48.9102 192.713 48.9102 192.4C48.9102 191.881 49.1289 191.441 49.5664 191.082C50.0078 190.723 50.5703 190.543 51.2539 190.543C51.9727 190.543 52.5547 190.729 53 191.1C53.4492 191.471 53.6738 191.945 53.6738 192.523H52.584C52.584 192.227 52.457 191.971 52.2031 191.756C51.9531 191.541 51.6367 191.434 51.2539 191.434C50.8594 191.434 50.5508 191.52 50.3281 191.691C50.1055 191.863 49.9941 192.088 49.9941 192.365C49.9941 192.627 50.0977 192.824 50.3047 192.957C50.5117 193.09 50.8848 193.217 51.4238 193.338C51.9668 193.459 52.4062 193.604 52.7422 193.771C53.0781 193.939 53.3262 194.143 53.4863 194.381C53.6504 194.615 53.7324 194.902 53.7324 195.242C53.7324 195.809 53.5059 196.264 53.0527 196.607C52.5996 196.947 52.0117 197.117 51.2891 197.117C50.7812 197.117 50.332 197.027 49.9414 196.848C49.5508 196.668 49.2441 196.418 49.0215 196.098C48.8027 195.773 48.6934 195.424 48.6934 195.049H49.7773C49.7969 195.412 49.9414 195.701 50.2109 195.916C50.4844 196.127 50.8438 196.232 51.2891 196.232C51.6992 196.232 52.0273 196.15 52.2734 195.986C52.5234 195.818 52.6484 195.596 52.6484 195.318ZM59.0586 197C58.9961 196.875 58.9453 196.652 58.9062 196.332C58.4023 196.855 57.8008 197.117 57.1016 197.117C56.4766 197.117 55.9629 196.941 55.5605 196.59C55.1621 196.234 54.9629 195.785 54.9629 195.242C54.9629 194.582 55.2129 194.07 55.7129 193.707C56.2168 193.34 56.9238 193.156 57.834 193.156H58.8887V192.658C58.8887 192.279 58.7754 191.979 58.5488 191.756C58.3223 191.529 57.9883 191.416 57.5469 191.416C57.1602 191.416 56.8359 191.514 56.5742 191.709C56.3125 191.904 56.1816 192.141 56.1816 192.418H55.0918C55.0918 192.102 55.2031 191.797 55.4258 191.504C55.6523 191.207 55.957 190.973 56.3398 190.801C56.7266 190.629 57.1504 190.543 57.6113 190.543C58.3418 190.543 58.9141 190.727 59.3281 191.094C59.7422 191.457 59.957 191.959 59.9727 192.6V195.518C59.9727 196.1 60.0469 196.562 60.1953 196.906V197H59.0586ZM57.2598 196.174C57.5996 196.174 57.9219 196.086 58.2266 195.91C58.5312 195.734 58.752 195.506 58.8887 195.225V193.924H58.0391C56.7109 193.924 56.0469 194.312 56.0469 195.09C56.0469 195.43 56.1602 195.695 56.3867 195.887C56.6133 196.078 56.9043 196.174 57.2598 196.174ZM14.9902 211V202.469H17.7793C18.7051 202.469 19.4004 202.66 19.8652 203.043C20.334 203.426 20.5684 203.992 20.5684 204.742C20.5684 205.141 20.4551 205.494 20.2285 205.803C20.002 206.107 19.6934 206.344 19.3027 206.512C19.7637 206.641 20.127 206.887 20.3926 207.25C20.6621 207.609 20.7969 208.039 20.7969 208.539C20.7969 209.305 20.5488 209.906 20.0527 210.344C19.5566 210.781 18.8555 211 17.9492 211H14.9902ZM16.1152 207.01V210.08H17.9727C18.4961 210.08 18.9082 209.945 19.209 209.676C19.5137 209.402 19.666 209.027 19.666 208.551C19.666 207.523 19.1074 207.01 17.9902 207.01H16.1152ZM16.1152 206.107H17.8145C18.3066 206.107 18.6992 205.984 18.9922 205.738C19.2891 205.492 19.4375 205.158 19.4375 204.736C19.4375 204.268 19.3008 203.928 19.0273 203.717C18.7539 203.502 18.3379 203.395 17.7793 203.395H16.1152V206.107ZM22.0098 207.771C22.0098 207.15 22.1309 206.592 22.373 206.096C22.6191 205.6 22.959 205.217 23.3926 204.947C23.8301 204.678 24.3281 204.543 24.8867 204.543C25.75 204.543 26.4473 204.842 26.9785 205.439C27.5137 206.037 27.7812 206.832 27.7812 207.824V207.9C27.7812 208.518 27.6621 209.072 27.4238 209.564C27.1895 210.053 26.8516 210.434 26.4102 210.707C25.9727 210.98 25.4688 211.117 24.8984 211.117C24.0391 211.117 23.3418 210.818 22.8066 210.221C22.2754 209.623 22.0098 208.832 22.0098 207.848V207.771ZM23.0996 207.9C23.0996 208.604 23.2617 209.168 23.5859 209.594C23.9141 210.02 24.3516 210.232 24.8984 210.232C25.4492 210.232 25.8867 210.018 26.2109 209.588C26.5352 209.154 26.6973 208.549 26.6973 207.771C26.6973 207.076 26.5312 206.514 26.1992 206.084C25.8711 205.65 25.4336 205.434 24.8867 205.434C24.3516 205.434 23.9199 205.646 23.5918 206.072C23.2637 206.498 23.0996 207.107 23.0996 207.9ZM33.0547 211C32.9922 210.875 32.9414 210.652 32.9023 210.332C32.3984 210.855 31.7969 211.117 31.0977 211.117C30.4727 211.117 29.959 210.941 29.5566 210.59C29.1582 210.234 28.959 209.785 28.959 209.242C28.959 208.582 29.209 208.07 29.709 207.707C30.2129 207.34 30.9199 207.156 31.8301 207.156H32.8848V206.658C32.8848 206.279 32.7715 205.979 32.5449 205.756C32.3184 205.529 31.9844 205.416 31.543 205.416C31.1562 205.416 30.832 205.514 30.5703 205.709C30.3086 205.904 30.1777 206.141 30.1777 206.418H29.0879C29.0879 206.102 29.1992 205.797 29.4219 205.504C29.6484 205.207 29.9531 204.973 30.3359 204.801C30.7227 204.629 31.1465 204.543 31.6074 204.543C32.3379 204.543 32.9102 204.727 33.3242 205.094C33.7383 205.457 33.9531 205.959 33.9688 206.6V209.518C33.9688 210.1 34.043 210.562 34.1914 210.906V211H33.0547ZM31.2559 210.174C31.5957 210.174 31.918 210.086 32.2227 209.91C32.5273 209.734 32.748 209.506 32.8848 209.225V207.924H32.0352C30.707 207.924 30.043 208.312 30.043 209.09C30.043 209.43 30.1562 209.695 30.3828 209.887C30.6094 210.078 30.9004 210.174 31.2559 210.174ZM38.7324 205.633C38.5684 205.605 38.3906 205.592 38.1992 205.592C37.4883 205.592 37.0059 205.895 36.752 206.5V211H35.668V204.66H36.7227L36.7402 205.393C37.0957 204.826 37.5996 204.543 38.252 204.543C38.4629 204.543 38.623 204.57 38.7324 204.625V205.633ZM39.3535 207.777C39.3535 206.805 39.584 206.023 40.0449 205.434C40.5059 204.84 41.1094 204.543 41.8555 204.543C42.5977 204.543 43.1855 204.797 43.6191 205.305V202H44.7031V211H43.707L43.6543 210.32C43.2207 210.852 42.6172 211.117 41.8438 211.117C41.1094 211.117 40.5098 210.816 40.0449 210.215C39.584 209.613 39.3535 208.828 39.3535 207.859V207.777ZM40.4375 207.9C40.4375 208.619 40.5859 209.182 40.8828 209.588C41.1797 209.994 41.5898 210.197 42.1133 210.197C42.8008 210.197 43.3027 209.889 43.6191 209.271V206.359C43.2949 205.762 42.7969 205.463 42.125 205.463C41.5938 205.463 41.1797 205.668 40.8828 206.078C40.5859 206.488 40.4375 207.096 40.4375 207.9ZM50.082 209.318C50.082 209.025 49.9707 208.799 49.748 208.639C49.5293 208.475 49.1445 208.334 48.5938 208.217C48.0469 208.1 47.6113 207.959 47.2871 207.795C46.9668 207.631 46.7285 207.436 46.5723 207.209C46.4199 206.982 46.3438 206.713 46.3438 206.4C46.3438 205.881 46.5625 205.441 47 205.082C47.4414 204.723 48.0039 204.543 48.6875 204.543C49.4062 204.543 49.9883 204.729 50.4336 205.1C50.8828 205.471 51.1074 205.945 51.1074 206.523H50.0176C50.0176 206.227 49.8906 205.971 49.6367 205.756C49.3867 205.541 49.0703 205.434 48.6875 205.434C48.293 205.434 47.9844 205.52 47.7617 205.691C47.5391 205.863 47.4277 206.088 47.4277 206.365C47.4277 206.627 47.5312 206.824 47.7383 206.957C47.9453 207.09 48.3184 207.217 48.8574 207.338C49.4004 207.459 49.8398 207.604 50.1758 207.771C50.5117 207.939 50.7598 208.143 50.9199 208.381C51.084 208.615 51.166 208.902 51.166 209.242C51.166 209.809 50.9395 210.264 50.4863 210.607C50.0332 210.947 49.4453 211.117 48.7227 211.117C48.2148 211.117 47.7656 211.027 47.375 210.848C46.9844 210.668 46.6777 210.418 46.4551 210.098C46.2363 209.773 46.127 209.424 46.127 209.049H47.2109C47.2305 209.412 47.375 209.701 47.6445 209.916C47.918 210.127 48.2773 210.232 48.7227 210.232C49.1328 210.232 49.4609 210.15 49.707 209.986C49.957 209.818 50.082 209.596 50.082 209.318Z" fill="#4D4D4D"/>
<path id="Others*" d="M21.9824 121.01C21.9824 121.846 21.8418 122.576 21.5605 123.201C21.2793 123.822 20.8809 124.297 20.3652 124.625C19.8496 124.953 19.248 125.117 18.5605 125.117C17.8887 125.117 17.293 124.953 16.7734 124.625C16.2539 124.293 15.8496 123.822 15.5605 123.213C15.2754 122.6 15.1289 121.891 15.1211 121.086V120.471C15.1211 119.65 15.2637 118.926 15.5488 118.297C15.834 117.668 16.2363 117.188 16.7559 116.855C17.2793 116.52 17.877 116.352 18.5488 116.352C19.2324 116.352 19.834 116.518 20.3535 116.85C20.877 117.178 21.2793 117.656 21.5605 118.285C21.8418 118.91 21.9824 119.639 21.9824 120.471V121.01ZM20.8633 120.459C20.8633 119.447 20.6602 118.672 20.2539 118.133C19.8477 117.59 19.2793 117.318 18.5488 117.318C17.8379 117.318 17.2773 117.59 16.8672 118.133C16.4609 118.672 16.252 119.422 16.2402 120.383V121.01C16.2402 121.99 16.4453 122.762 16.8555 123.324C17.2695 123.883 17.8379 124.162 18.5605 124.162C19.2871 124.162 19.8496 123.898 20.248 123.371C20.6465 122.84 20.8516 122.08 20.8633 121.092V120.459ZM24.9707 117.125V118.66H26.1543V119.498H24.9707V123.43C24.9707 123.684 25.0234 123.875 25.1289 124.004C25.2344 124.129 25.4141 124.191 25.668 124.191C25.793 124.191 25.9648 124.168 26.1836 124.121V125C25.8984 125.078 25.6211 125.117 25.3516 125.117C24.8672 125.117 24.502 124.971 24.2559 124.678C24.0098 124.385 23.8867 123.969 23.8867 123.43V119.498H22.7324V118.66H23.8867V117.125H24.9707ZM28.5098 119.428C28.9902 118.838 29.6152 118.543 30.3848 118.543C31.7246 118.543 32.4004 119.299 32.4121 120.811V125H31.3281V120.805C31.3242 120.348 31.2188 120.01 31.0117 119.791C30.8086 119.572 30.4902 119.463 30.0566 119.463C29.7051 119.463 29.3965 119.557 29.1309 119.744C28.8652 119.932 28.6582 120.178 28.5098 120.482V125H27.4258V116H28.5098V119.428ZM36.666 125.117C35.8066 125.117 35.1074 124.836 34.5684 124.273C34.0293 123.707 33.7598 122.951 33.7598 122.006V121.807C33.7598 121.178 33.8789 120.617 34.1172 120.125C34.3594 119.629 34.6953 119.242 35.125 118.965C35.5586 118.684 36.0273 118.543 36.5312 118.543C37.3555 118.543 37.9961 118.814 38.4531 119.357C38.9102 119.9 39.1387 120.678 39.1387 121.689V122.141H34.8438C34.8594 122.766 35.041 123.271 35.3887 123.658C35.7402 124.041 36.1855 124.232 36.7246 124.232C37.1074 124.232 37.4316 124.154 37.6973 123.998C37.9629 123.842 38.1953 123.635 38.3945 123.377L39.0566 123.893C38.5254 124.709 37.7285 125.117 36.666 125.117ZM36.5312 119.434C36.0938 119.434 35.7266 119.594 35.4297 119.914C35.1328 120.23 34.9492 120.676 34.8789 121.25H38.0547V121.168C38.0234 120.617 37.875 120.191 37.6094 119.891C37.3438 119.586 36.9844 119.434 36.5312 119.434ZM43.4629 119.633C43.2988 119.605 43.1211 119.592 42.9297 119.592C42.2188 119.592 41.7363 119.895 41.4824 120.5V125H40.3984V118.66H41.4531L41.4707 119.393C41.8262 118.826 42.3301 118.543 42.9824 118.543C43.1934 118.543 43.3535 118.57 43.4629 118.625V119.633ZM48.1562 123.318C48.1562 123.025 48.0449 122.799 47.8223 122.639C47.6035 122.475 47.2188 122.334 46.668 122.217C46.1211 122.1 45.6855 121.959 45.3613 121.795C45.041 121.631 44.8027 121.436 44.6465 121.209C44.4941 120.982 44.418 120.713 44.418 120.4C44.418 119.881 44.6367 119.441 45.0742 119.082C45.5156 118.723 46.0781 118.543 46.7617 118.543C47.4805 118.543 48.0625 118.729 48.5078 119.1C48.957 119.471 49.1816 119.945 49.1816 120.523H48.0918C48.0918 120.227 47.9648 119.971 47.7109 119.756C47.4609 119.541 47.1445 119.434 46.7617 119.434C46.3672 119.434 46.0586 119.52 45.8359 119.691C45.6133 119.863 45.502 120.088 45.502 120.365C45.502 120.627 45.6055 120.824 45.8125 120.957C46.0195 121.09 46.3926 121.217 46.9316 121.338C47.4746 121.459 47.9141 121.604 48.25 121.771C48.5859 121.939 48.834 122.143 48.9941 122.381C49.1582 122.615 49.2402 122.902 49.2402 123.242C49.2402 123.809 49.0137 124.264 48.5605 124.607C48.1074 124.947 47.5195 125.117 46.7969 125.117C46.2891 125.117 45.8398 125.027 45.4492 124.848C45.0586 124.668 44.752 124.418 44.5293 124.098C44.3105 123.773 44.2012 123.424 44.2012 123.049H45.2852C45.3047 123.412 45.4492 123.701 45.7188 123.916C45.9922 124.127 46.3516 124.232 46.7969 124.232C47.207 124.232 47.5352 124.15 47.7812 123.986C48.0312 123.818 48.1562 123.596 48.1562 123.318ZM51.7656 119.24L49.9961 118.713L50.2656 117.828L52.0352 118.484L51.9824 116.469H52.8789L52.8203 118.514L54.5605 117.869L54.8301 118.76L53.0312 119.293L54.1914 120.881L53.4648 121.432L52.375 119.744L51.3203 121.391L50.5879 120.857L51.7656 119.24Z" fill="#4D4D4D"/>
<path id="State Boards" d="M17.5039 43.1973C16.5391 42.9199 15.8359 42.5801 15.3945 42.1777C14.957 41.7715 14.7383 41.2715 14.7383 40.6777C14.7383 40.0059 15.0059 39.4512 15.541 39.0137C16.0801 38.5723 16.7793 38.3516 17.6387 38.3516C18.2246 38.3516 18.7461 38.4648 19.2031 38.6914C19.6641 38.918 20.0195 39.2305 20.2695 39.6289C20.5234 40.0273 20.6504 40.4629 20.6504 40.9355H19.5195C19.5195 40.4199 19.3555 40.0156 19.0273 39.7227C18.6992 39.4258 18.2363 39.2773 17.6387 39.2773C17.084 39.2773 16.6504 39.4004 16.3379 39.6465C16.0293 39.8887 15.875 40.2266 15.875 40.6602C15.875 41.0078 16.0215 41.3027 16.3145 41.5449C16.6113 41.7832 17.1133 42.002 17.8203 42.2012C18.5312 42.4004 19.0859 42.6211 19.4844 42.8633C19.8867 43.1016 20.1836 43.3809 20.375 43.7012C20.5703 44.0215 20.668 44.3984 20.668 44.832C20.668 45.5234 20.3984 46.0781 19.8594 46.4961C19.3203 46.9102 18.5996 47.1172 17.6973 47.1172C17.1113 47.1172 16.5645 47.0059 16.0566 46.7832C15.5488 46.5566 15.1562 46.248 14.8789 45.8574C14.6055 45.4668 14.4688 45.0234 14.4688 44.5273H15.5996C15.5996 45.043 15.7891 45.4512 16.168 45.752C16.5508 46.0488 17.0605 46.1973 17.6973 46.1973C18.291 46.1973 18.7461 46.0762 19.0625 45.834C19.3789 45.5918 19.5371 45.2617 19.5371 44.8438C19.5371 44.4258 19.3906 44.1035 19.0977 43.877C18.8047 43.6465 18.2734 43.4199 17.5039 43.1973ZM23.416 39.125V40.6602H24.5996V41.498H23.416V45.4297C23.416 45.6836 23.4688 45.875 23.5742 46.0039C23.6797 46.1289 23.8594 46.1914 24.1133 46.1914C24.2383 46.1914 24.4102 46.168 24.6289 46.1211V47C24.3438 47.0781 24.0664 47.1172 23.7969 47.1172C23.3125 47.1172 22.9473 46.9707 22.7012 46.6777C22.4551 46.3848 22.332 45.9688 22.332 45.4297V41.498H21.1777V40.6602H22.332V39.125H23.416ZM29.7852 47C29.7227 46.875 29.6719 46.6523 29.6328 46.332C29.1289 46.8555 28.5273 47.1172 27.8281 47.1172C27.2031 47.1172 26.6895 46.9414 26.2871 46.5898C25.8887 46.2344 25.6895 45.7852 25.6895 45.2422C25.6895 44.582 25.9395 44.0703 26.4395 43.707C26.9434 43.3398 27.6504 43.1562 28.5605 43.1562H29.6152V42.6582C29.6152 42.2793 29.502 41.9785 29.2754 41.7559C29.0488 41.5293 28.7148 41.416 28.2734 41.416C27.8867 41.416 27.5625 41.5137 27.3008 41.709C27.0391 41.9043 26.9082 42.1406 26.9082 42.418H25.8184C25.8184 42.1016 25.9297 41.7969 26.1523 41.5039C26.3789 41.207 26.6836 40.9727 27.0664 40.8008C27.4531 40.6289 27.877 40.543 28.3379 40.543C29.0684 40.543 29.6406 40.7266 30.0547 41.0938C30.4688 41.457 30.6836 41.959 30.6992 42.5996V45.5176C30.6992 46.0996 30.7734 46.5625 30.9219 46.9062V47H29.7852ZM27.9863 46.1738C28.3262 46.1738 28.6484 46.0859 28.9531 45.9102C29.2578 45.7344 29.4785 45.5059 29.6152 45.2246V43.9238H28.7656C27.4375 43.9238 26.7734 44.3125 26.7734 45.0898C26.7734 45.4297 26.8867 45.6953 27.1133 45.8867C27.3398 46.0781 27.6309 46.1738 27.9863 46.1738ZM33.8691 39.125V40.6602H35.0527V41.498H33.8691V45.4297C33.8691 45.6836 33.9219 45.875 34.0273 46.0039C34.1328 46.1289 34.3125 46.1914 34.5664 46.1914C34.6914 46.1914 34.8633 46.168 35.082 46.1211V47C34.7969 47.0781 34.5195 47.1172 34.25 47.1172C33.7656 47.1172 33.4004 46.9707 33.1543 46.6777C32.9082 46.3848 32.7852 45.9688 32.7852 45.4297V41.498H31.6309V40.6602H32.7852V39.125H33.8691ZM38.9551 47.1172C38.0957 47.1172 37.3965 46.8359 36.8574 46.2734C36.3184 45.707 36.0488 44.9512 36.0488 44.0059V43.8066C36.0488 43.1777 36.168 42.6172 36.4062 42.125C36.6484 41.6289 36.9844 41.2422 37.4141 40.9648C37.8477 40.6836 38.3164 40.543 38.8203 40.543C39.6445 40.543 40.2852 40.8145 40.7422 41.3574C41.1992 41.9004 41.4277 42.6777 41.4277 43.6895V44.1406H37.1328C37.1484 44.7656 37.3301 45.2715 37.6777 45.6582C38.0293 46.041 38.4746 46.2324 39.0137 46.2324C39.3965 46.2324 39.7207 46.1543 39.9863 45.998C40.252 45.8418 40.4844 45.6348 40.6836 45.377L41.3457 45.8926C40.8145 46.709 40.0176 47.1172 38.9551 47.1172ZM38.8203 41.4336C38.3828 41.4336 38.0156 41.5938 37.7188 41.9141C37.4219 42.2305 37.2383 42.6758 37.168 43.25H40.3438V43.168C40.3125 42.6172 40.1641 42.1914 39.8984 41.8906C39.6328 41.5859 39.2734 41.4336 38.8203 41.4336ZM14.9902 61V52.4688H17.7793C18.7051 52.4688 19.4004 52.6602 19.8652 53.043C20.334 53.4258 20.5684 53.9922 20.5684 54.7422C20.5684 55.1406 20.4551 55.4941 20.2285 55.8027C20.002 56.1074 19.6934 56.3438 19.3027 56.5117C19.7637 56.6406 20.127 56.8867 20.3926 57.25C20.6621 57.6094 20.7969 58.0391 20.7969 58.5391C20.7969 59.3047 20.5488 59.9062 20.0527 60.3438C19.5566 60.7812 18.8555 61 17.9492 61H14.9902ZM16.1152 57.0098V60.0801H17.9727C18.4961 60.0801 18.9082 59.9453 19.209 59.6758C19.5137 59.4023 19.666 59.0273 19.666 58.5508C19.666 57.5234 19.1074 57.0098 17.9902 57.0098H16.1152ZM16.1152 56.1074H17.8145C18.3066 56.1074 18.6992 55.9844 18.9922 55.7383C19.2891 55.4922 19.4375 55.1582 19.4375 54.7363C19.4375 54.2676 19.3008 53.9277 19.0273 53.7168C18.7539 53.502 18.3379 53.3945 17.7793 53.3945H16.1152V56.1074ZM22.0098 57.7715C22.0098 57.1504 22.1309 56.5918 22.373 56.0957C22.6191 55.5996 22.959 55.2168 23.3926 54.9473C23.8301 54.6777 24.3281 54.543 24.8867 54.543C25.75 54.543 26.4473 54.8418 26.9785 55.4395C27.5137 56.0371 27.7812 56.832 27.7812 57.8242V57.9004C27.7812 58.5176 27.6621 59.0723 27.4238 59.5645C27.1895 60.0527 26.8516 60.4336 26.4102 60.707C25.9727 60.9805 25.4688 61.1172 24.8984 61.1172C24.0391 61.1172 23.3418 60.8184 22.8066 60.2207C22.2754 59.623 22.0098 58.832 22.0098 57.8477V57.7715ZM23.0996 57.9004C23.0996 58.6035 23.2617 59.168 23.5859 59.5938C23.9141 60.0195 24.3516 60.2324 24.8984 60.2324C25.4492 60.2324 25.8867 60.0176 26.2109 59.5879C26.5352 59.1543 26.6973 58.5488 26.6973 57.7715C26.6973 57.0762 26.5312 56.5137 26.1992 56.084C25.8711 55.6504 25.4336 55.4336 24.8867 55.4336C24.3516 55.4336 23.9199 55.6465 23.5918 56.0723C23.2637 56.498 23.0996 57.1074 23.0996 57.9004ZM33.0547 61C32.9922 60.875 32.9414 60.6523 32.9023 60.332C32.3984 60.8555 31.7969 61.1172 31.0977 61.1172C30.4727 61.1172 29.959 60.9414 29.5566 60.5898C29.1582 60.2344 28.959 59.7852 28.959 59.2422C28.959 58.582 29.209 58.0703 29.709 57.707C30.2129 57.3398 30.9199 57.1562 31.8301 57.1562H32.8848V56.6582C32.8848 56.2793 32.7715 55.9785 32.5449 55.7559C32.3184 55.5293 31.9844 55.416 31.543 55.416C31.1562 55.416 30.832 55.5137 30.5703 55.709C30.3086 55.9043 30.1777 56.1406 30.1777 56.418H29.0879C29.0879 56.1016 29.1992 55.7969 29.4219 55.5039C29.6484 55.207 29.9531 54.9727 30.3359 54.8008C30.7227 54.6289 31.1465 54.543 31.6074 54.543C32.3379 54.543 32.9102 54.7266 33.3242 55.0938C33.7383 55.457 33.9531 55.959 33.9688 56.5996V59.5176C33.9688 60.0996 34.043 60.5625 34.1914 60.9062V61H33.0547ZM31.2559 60.1738C31.5957 60.1738 31.918 60.0859 32.2227 59.9102C32.5273 59.7344 32.748 59.5059 32.8848 59.2246V57.9238H32.0352C30.707 57.9238 30.043 58.3125 30.043 59.0898C30.043 59.4297 30.1562 59.6953 30.3828 59.8867C30.6094 60.0781 30.9004 60.1738 31.2559 60.1738ZM38.7324 55.6328C38.5684 55.6055 38.3906 55.5918 38.1992 55.5918C37.4883 55.5918 37.0059 55.8945 36.752 56.5V61H35.668V54.6602H36.7227L36.7402 55.3926C37.0957 54.8262 37.5996 54.543 38.252 54.543C38.4629 54.543 38.623 54.5703 38.7324 54.625V55.6328ZM39.3535 57.7773C39.3535 56.8047 39.584 56.0234 40.0449 55.4336C40.5059 54.8398 41.1094 54.543 41.8555 54.543C42.5977 54.543 43.1855 54.7969 43.6191 55.3047V52H44.7031V61H43.707L43.6543 60.3203C43.2207 60.8516 42.6172 61.1172 41.8438 61.1172C41.1094 61.1172 40.5098 60.8164 40.0449 60.2148C39.584 59.6133 39.3535 58.8281 39.3535 57.8594V57.7773ZM40.4375 57.9004C40.4375 58.6191 40.5859 59.1816 40.8828 59.5879C41.1797 59.9941 41.5898 60.1973 42.1133 60.1973C42.8008 60.1973 43.3027 59.8887 43.6191 59.2715V56.3594C43.2949 55.7617 42.7969 55.4629 42.125 55.4629C41.5938 55.4629 41.1797 55.668 40.8828 56.0781C40.5859 56.4883 40.4375 57.0957 40.4375 57.9004ZM50.082 59.3184C50.082 59.0254 49.9707 58.7988 49.748 58.6387C49.5293 58.4746 49.1445 58.334 48.5938 58.2168C48.0469 58.0996 47.6113 57.959 47.2871 57.7949C46.9668 57.6309 46.7285 57.4355 46.5723 57.209C46.4199 56.9824 46.3438 56.7129 46.3438 56.4004C46.3438 55.8809 46.5625 55.4414 47 55.082C47.4414 54.7227 48.0039 54.543 48.6875 54.543C49.4062 54.543 49.9883 54.7285 50.4336 55.0996C50.8828 55.4707 51.1074 55.9453 51.1074 56.5234H50.0176C50.0176 56.2266 49.8906 55.9707 49.6367 55.7559C49.3867 55.541 49.0703 55.4336 48.6875 55.4336C48.293 55.4336 47.9844 55.5195 47.7617 55.6914C47.5391 55.8633 47.4277 56.0879 47.4277 56.3652C47.4277 56.627 47.5312 56.8242 47.7383 56.957C47.9453 57.0898 48.3184 57.2168 48.8574 57.3379C49.4004 57.459 49.8398 57.6035 50.1758 57.7715C50.5117 57.9395 50.7598 58.1426 50.9199 58.3809C51.084 58.6152 51.166 58.9023 51.166 59.2422C51.166 59.8086 50.9395 60.2637 50.4863 60.6074C50.0332 60.9473 49.4453 61.1172 48.7227 61.1172C48.2148 61.1172 47.7656 61.0273 47.375 60.8477C46.9844 60.668 46.6777 60.418 46.4551 60.0977C46.2363 59.7734 46.127 59.4238 46.127 59.0488H47.2109C47.2305 59.4121 47.375 59.7012 47.6445 59.916C47.918 60.127 48.2773 60.2324 48.7227 60.2324C49.1328 60.2324 49.4609 60.1504 49.707 59.9863C49.957 59.8184 50.082 59.5957 50.082 59.3184Z" fill="#4D4D4D"/>
<path id="0" d="M82.483 552.032C82.483 552.963 82.324 553.654 82.006 554.107C81.6881 554.56 81.1911 554.786 80.515 554.786C79.8476 554.786 79.3534 554.565 79.0326 554.124C78.7118 553.68 78.5456 553.019 78.5341 552.139V551.078C78.5341 550.158 78.6931 549.475 79.0111 549.028C79.3291 548.581 79.8275 548.358 80.5064 548.358C81.1796 548.358 81.6752 548.574 81.9931 549.007C82.3111 549.436 82.4744 550.101 82.483 551V552.032ZM81.6881 550.945C81.6881 550.271 81.5935 549.782 81.4045 549.475C81.2154 549.166 80.9161 549.011 80.5064 549.011C80.0996 549.011 79.8032 549.164 79.617 549.471C79.4308 549.777 79.3348 550.248 79.3291 550.884V552.156C79.3291 552.832 79.4265 553.332 79.6213 553.656C79.8189 553.977 80.1168 554.137 80.515 554.137C80.9075 554.137 81.1982 553.985 81.3873 553.682C81.5792 553.378 81.6795 552.9 81.6881 552.246V550.945Z" fill="#4D4D4D"/>
<path id="500000" d="M275.425 551.563L275.743 548.444H278.949V549.179H276.418L276.229 550.884C276.535 550.704 276.883 550.614 277.273 550.614C277.843 550.614 278.295 550.803 278.631 551.181C278.966 551.556 279.133 552.065 279.133 552.706C279.133 553.351 278.959 553.859 278.609 554.232C278.263 554.601 277.777 554.786 277.153 554.786C276.6 554.786 276.148 554.633 275.799 554.326C275.45 554.02 275.25 553.596 275.202 553.054H275.954C276.002 553.412 276.13 553.683 276.336 553.866C276.542 554.047 276.814 554.137 277.153 554.137C277.522 554.137 277.811 554.011 278.02 553.759C278.232 553.507 278.338 553.159 278.338 552.715C278.338 552.297 278.224 551.961 277.995 551.709C277.768 551.454 277.466 551.327 277.088 551.327C276.741 551.327 276.469 551.403 276.272 551.555L276.061 551.727L275.425 551.563ZM283.924 552.032C283.924 552.963 283.765 553.654 283.447 554.107C283.129 554.56 282.632 554.786 281.956 554.786C281.289 554.786 280.795 554.565 280.474 554.124C280.153 553.68 279.987 553.019 279.976 552.139V551.078C279.976 550.158 280.135 549.475 280.453 549.028C280.77 548.581 281.269 548.358 281.948 548.358C282.621 548.358 283.117 548.574 283.435 549.007C283.753 549.436 283.916 550.101 283.924 551V552.032ZM283.129 550.945C283.129 550.271 283.035 549.782 282.846 549.475C282.657 549.166 282.357 549.011 281.948 549.011C281.541 549.011 281.245 549.164 281.058 549.471C280.872 549.777 280.776 550.248 280.77 550.884V552.156C280.77 552.832 280.868 553.332 281.063 553.656C281.26 553.977 281.558 554.137 281.956 554.137C282.349 554.137 282.64 553.985 282.829 553.682C283.021 553.378 283.121 552.9 283.129 552.246V550.945ZM288.866 552.032C288.866 552.963 288.707 553.654 288.389 554.107C288.071 554.56 287.574 554.786 286.898 554.786C286.23 554.786 285.736 554.565 285.415 554.124C285.095 553.68 284.928 553.019 284.917 552.139V551.078C284.917 550.158 285.076 549.475 285.394 549.028C285.712 548.581 286.21 548.358 286.889 548.358C287.562 548.358 288.058 548.574 288.376 549.007C288.694 549.436 288.857 550.101 288.866 551V552.032ZM288.071 550.945C288.071 550.271 287.976 549.782 287.787 549.475C287.598 549.166 287.299 549.011 286.889 549.011C286.482 549.011 286.186 549.164 286 549.471C285.814 549.777 285.718 550.248 285.712 550.884V552.156C285.712 552.832 285.809 553.332 286.004 553.656C286.202 553.977 286.5 554.137 286.898 554.137C287.29 554.137 287.581 553.985 287.77 553.682C287.962 553.378 288.062 552.9 288.071 552.246V550.945ZM293.807 552.032C293.807 552.963 293.648 553.654 293.33 554.107C293.012 554.56 292.515 554.786 291.839 554.786C291.172 554.786 290.678 554.565 290.357 554.124C290.036 553.68 289.87 553.019 289.858 552.139V551.078C289.858 550.158 290.017 549.475 290.335 549.028C290.653 548.581 291.152 548.358 291.831 548.358C292.504 548.358 292.999 548.574 293.317 549.007C293.635 549.436 293.799 550.101 293.807 551V552.032ZM293.012 550.945C293.012 550.271 292.918 549.782 292.729 549.475C292.54 549.166 292.24 549.011 291.831 549.011C291.424 549.011 291.127 549.164 290.941 549.471C290.755 549.777 290.659 550.248 290.653 550.884V552.156C290.653 552.832 290.751 553.332 290.945 553.656C291.143 553.977 291.441 554.137 291.839 554.137C292.232 554.137 292.522 553.985 292.711 553.682C292.903 553.378 293.004 552.9 293.012 552.246V550.945ZM298.749 552.032C298.749 552.963 298.59 553.654 298.272 554.107C297.954 554.56 297.457 554.786 296.781 554.786C296.113 554.786 295.619 554.565 295.298 554.124C294.977 553.68 294.811 553.019 294.8 552.139V551.078C294.8 550.158 294.959 549.475 295.277 549.028C295.595 548.581 296.093 548.358 296.772 548.358C297.445 548.358 297.941 548.574 298.259 549.007C298.577 549.436 298.74 550.101 298.749 551V552.032ZM297.954 550.945C297.954 550.271 297.859 549.782 297.67 549.475C297.481 549.166 297.182 549.011 296.772 549.011C296.365 549.011 296.069 549.164 295.883 549.471C295.696 549.777 295.6 550.248 295.595 550.884V552.156C295.595 552.832 295.692 553.332 295.887 553.656C296.085 553.977 296.382 554.137 296.781 554.137C297.173 554.137 297.464 553.985 297.653 553.682C297.845 553.378 297.945 552.9 297.954 552.246V550.945ZM303.69 552.032C303.69 552.963 303.531 553.654 303.213 554.107C302.895 554.56 302.398 554.786 301.722 554.786C301.055 554.786 300.56 554.565 300.24 554.124C299.919 553.68 299.753 553.019 299.741 552.139V551.078C299.741 550.158 299.9 549.475 300.218 549.028C300.536 548.581 301.035 548.358 301.713 548.358C302.387 548.358 302.882 548.574 303.2 549.007C303.518 549.436 303.681 550.101 303.69 551V552.032ZM302.895 550.945C302.895 550.271 302.801 549.782 302.611 549.475C302.422 549.166 302.123 549.011 301.713 549.011C301.307 549.011 301.01 549.164 300.824 549.471C300.638 549.777 300.542 550.248 300.536 550.884V552.156C300.536 552.832 300.633 553.332 300.828 553.656C301.026 553.977 301.324 554.137 301.722 554.137C302.114 554.137 302.405 553.985 302.594 553.682C302.786 553.378 302.886 552.9 302.895 552.246V550.945Z" fill="#4D4D4D"/>
<path id="1000000" d="M484.162 554.7H483.363V549.402L481.76 549.991V549.269L484.038 548.414H484.162V554.7ZM490.414 552.032C490.414 552.963 490.255 553.654 489.937 554.107C489.619 554.56 489.122 554.786 488.446 554.786C487.779 554.786 487.285 554.565 486.964 554.124C486.643 553.68 486.477 553.019 486.466 552.139V551.078C486.466 550.158 486.625 549.475 486.942 549.028C487.26 548.581 487.759 548.358 488.438 548.358C489.111 548.358 489.607 548.574 489.925 549.007C490.242 549.436 490.406 550.101 490.414 551V552.032ZM489.619 550.945C489.619 550.271 489.525 549.782 489.336 549.475C489.147 549.166 488.847 549.011 488.438 549.011C488.031 549.011 487.735 549.164 487.548 549.471C487.362 549.777 487.266 550.248 487.26 550.884V552.156C487.26 552.832 487.358 553.332 487.553 553.656C487.75 553.977 488.048 554.137 488.446 554.137C488.839 554.137 489.13 553.985 489.319 553.682C489.511 553.378 489.611 552.9 489.619 552.246V550.945ZM495.356 552.032C495.356 552.963 495.197 553.654 494.879 554.107C494.561 554.56 494.064 554.786 493.388 554.786C492.72 554.786 492.226 554.565 491.905 554.124C491.585 553.68 491.418 553.019 491.407 552.139V551.078C491.407 550.158 491.566 549.475 491.884 549.028C492.202 548.581 492.7 548.358 493.379 548.358C494.052 548.358 494.548 548.574 494.866 549.007C495.184 549.436 495.347 550.101 495.356 551V552.032ZM494.561 550.945C494.561 550.271 494.466 549.782 494.277 549.475C494.088 549.166 493.789 549.011 493.379 549.011C492.972 549.011 492.676 549.164 492.49 549.471C492.304 549.777 492.208 550.248 492.202 550.884V552.156C492.202 552.832 492.299 553.332 492.494 553.656C492.692 553.977 492.99 554.137 493.388 554.137C493.78 554.137 494.071 553.985 494.26 553.682C494.452 553.378 494.552 552.9 494.561 552.246V550.945ZM500.297 552.032C500.297 552.963 500.138 553.654 499.82 554.107C499.502 554.56 499.005 554.786 498.329 554.786C497.662 554.786 497.168 554.565 496.847 554.124C496.526 553.68 496.36 553.019 496.348 552.139V551.078C496.348 550.158 496.507 549.475 496.825 549.028C497.143 548.581 497.642 548.358 498.321 548.358C498.994 548.358 499.489 548.574 499.807 549.007C500.125 549.436 500.289 550.101 500.297 551V552.032ZM499.502 550.945C499.502 550.271 499.408 549.782 499.219 549.475C499.03 549.166 498.73 549.011 498.321 549.011C497.914 549.011 497.617 549.164 497.431 549.471C497.245 549.777 497.149 550.248 497.143 550.884V552.156C497.143 552.832 497.241 553.332 497.435 553.656C497.633 553.977 497.931 554.137 498.329 554.137C498.722 554.137 499.012 553.985 499.201 553.682C499.393 553.378 499.494 552.9 499.502 552.246V550.945ZM505.239 552.032C505.239 552.963 505.08 553.654 504.762 554.107C504.444 554.56 503.947 554.786 503.271 554.786C502.603 554.786 502.109 554.565 501.788 554.124C501.467 553.68 501.301 553.019 501.29 552.139V551.078C501.29 550.158 501.449 549.475 501.767 549.028C502.085 548.581 502.583 548.358 503.262 548.358C503.935 548.358 504.431 548.574 504.749 549.007C505.067 549.436 505.23 550.101 505.239 551V552.032ZM504.444 550.945C504.444 550.271 504.349 549.782 504.16 549.475C503.971 549.166 503.672 549.011 503.262 549.011C502.855 549.011 502.559 549.164 502.373 549.471C502.186 549.777 502.09 550.248 502.085 550.884V552.156C502.085 552.832 502.182 553.332 502.377 553.656C502.575 553.977 502.872 554.137 503.271 554.137C503.663 554.137 503.954 553.985 504.143 553.682C504.335 553.378 504.435 552.9 504.444 552.246V550.945ZM510.18 552.032C510.18 552.963 510.021 553.654 509.703 554.107C509.385 554.56 508.888 554.786 508.212 554.786C507.545 554.786 507.05 554.565 506.73 554.124C506.409 553.68 506.243 553.019 506.231 552.139V551.078C506.231 550.158 506.39 549.475 506.708 549.028C507.026 548.581 507.525 548.358 508.203 548.358C508.877 548.358 509.372 548.574 509.69 549.007C510.008 549.436 510.171 550.101 510.18 551V552.032ZM509.385 550.945C509.385 550.271 509.291 549.782 509.101 549.475C508.912 549.166 508.613 549.011 508.203 549.011C507.797 549.011 507.5 549.164 507.314 549.471C507.128 549.777 507.032 550.248 507.026 550.884V552.156C507.026 552.832 507.123 553.332 507.318 553.656C507.516 553.977 507.814 554.137 508.212 554.137C508.604 554.137 508.895 553.985 509.084 553.682C509.276 553.378 509.376 552.9 509.385 552.246V550.945ZM515.121 552.032C515.121 552.963 514.962 553.654 514.644 554.107C514.326 554.56 513.829 554.786 513.153 554.786C512.486 554.786 511.992 554.565 511.671 554.124C511.35 553.68 511.184 553.019 511.173 552.139V551.078C511.173 550.158 511.332 549.475 511.65 549.028C511.967 548.581 512.466 548.358 513.145 548.358C513.818 548.358 514.314 548.574 514.632 549.007C514.95 549.436 515.113 550.101 515.121 551V552.032ZM514.326 550.945C514.326 550.271 514.232 549.782 514.043 549.475C513.854 549.166 513.554 549.011 513.145 549.011C512.738 549.011 512.442 549.164 512.255 549.471C512.069 549.777 511.973 550.248 511.967 550.884V552.156C511.967 552.832 512.065 553.332 512.26 553.656C512.457 553.977 512.755 554.137 513.153 554.137C513.546 554.137 513.837 553.985 514.026 553.682C514.218 553.378 514.318 552.9 514.326 552.246V550.945Z" fill="#4D4D4D"/>
<path id="1500000" d="M693.152 554.7H692.353V549.402L690.75 549.991V549.269L693.028 548.414H693.152V554.7ZM695.847 551.563L696.165 548.444H699.37V549.179H696.839L696.65 550.884C696.957 550.704 697.305 550.614 697.694 550.614C698.264 550.614 698.717 550.803 699.052 551.181C699.387 551.556 699.555 552.065 699.555 552.706C699.555 553.351 699.38 553.859 699.031 554.232C698.684 554.601 698.198 554.786 697.574 554.786C697.021 554.786 696.57 554.633 696.22 554.326C695.871 554.02 695.672 553.596 695.623 553.054H696.375C696.424 553.412 696.551 553.683 696.758 553.866C696.964 554.047 697.236 554.137 697.574 554.137C697.943 554.137 698.233 554.011 698.442 553.759C698.654 553.507 698.76 553.159 698.76 552.715C698.76 552.297 698.645 551.961 698.416 551.709C698.19 551.454 697.888 551.327 697.509 551.327C697.163 551.327 696.891 551.403 696.693 551.555L696.483 551.727L695.847 551.563ZM704.346 552.032C704.346 552.963 704.187 553.654 703.869 554.107C703.551 554.56 703.054 554.786 702.378 554.786C701.71 554.786 701.216 554.565 700.895 554.124C700.575 553.68 700.408 553.019 700.397 552.139V551.078C700.397 550.158 700.556 549.475 700.874 549.028C701.192 548.581 701.69 548.358 702.369 548.358C703.042 548.358 703.538 548.574 703.856 549.007C704.174 549.436 704.337 550.101 704.346 551V552.032ZM703.551 550.945C703.551 550.271 703.456 549.782 703.267 549.475C703.078 549.166 702.779 549.011 702.369 549.011C701.962 549.011 701.666 549.164 701.48 549.471C701.294 549.777 701.198 550.248 701.192 550.884V552.156C701.192 552.832 701.289 553.332 701.484 553.656C701.682 553.977 701.98 554.137 702.378 554.137C702.77 554.137 703.061 553.985 703.25 553.682C703.442 553.378 703.542 552.9 703.551 552.246V550.945ZM709.287 552.032C709.287 552.963 709.128 553.654 708.81 554.107C708.492 554.56 707.995 554.786 707.319 554.786C706.652 554.786 706.158 554.565 705.837 554.124C705.516 553.68 705.35 553.019 705.338 552.139V551.078C705.338 550.158 705.497 549.475 705.815 549.028C706.133 548.581 706.632 548.358 707.311 548.358C707.984 548.358 708.479 548.574 708.797 549.007C709.115 549.436 709.279 550.101 709.287 551V552.032ZM708.492 550.945C708.492 550.271 708.398 549.782 708.209 549.475C708.02 549.166 707.72 549.011 707.311 549.011C706.904 549.011 706.607 549.164 706.421 549.471C706.235 549.777 706.139 550.248 706.133 550.884V552.156C706.133 552.832 706.231 553.332 706.425 553.656C706.623 553.977 706.921 554.137 707.319 554.137C707.712 554.137 708.002 553.985 708.192 553.682C708.383 553.378 708.484 552.9 708.492 552.246V550.945ZM714.229 552.032C714.229 552.963 714.07 553.654 713.752 554.107C713.434 554.56 712.937 554.786 712.261 554.786C711.593 554.786 711.099 554.565 710.778 554.124C710.457 553.68 710.291 553.019 710.28 552.139V551.078C710.28 550.158 710.439 549.475 710.757 549.028C711.075 548.581 711.573 548.358 712.252 548.358C712.925 548.358 713.421 548.574 713.739 549.007C714.057 549.436 714.22 550.101 714.229 551V552.032ZM713.434 550.945C713.434 550.271 713.339 549.782 713.15 549.475C712.961 549.166 712.662 549.011 712.252 549.011C711.845 549.011 711.549 549.164 711.363 549.471C711.176 549.777 711.08 550.248 711.075 550.884V552.156C711.075 552.832 711.172 553.332 711.367 553.656C711.565 553.977 711.862 554.137 712.261 554.137C712.653 554.137 712.944 553.985 713.133 553.682C713.325 553.378 713.425 552.9 713.434 552.246V550.945ZM719.17 552.032C719.17 552.963 719.011 553.654 718.693 554.107C718.375 554.56 717.878 554.786 717.202 554.786C716.535 554.786 716.04 554.565 715.72 554.124C715.399 553.68 715.233 553.019 715.221 552.139V551.078C715.221 550.158 715.38 549.475 715.698 549.028C716.016 548.581 716.515 548.358 717.193 548.358C717.867 548.358 718.362 548.574 718.68 549.007C718.998 549.436 719.161 550.101 719.17 551V552.032ZM718.375 550.945C718.375 550.271 718.281 549.782 718.092 549.475C717.902 549.166 717.603 549.011 717.193 549.011C716.787 549.011 716.49 549.164 716.304 549.471C716.118 549.777 716.022 550.248 716.016 550.884V552.156C716.016 552.832 716.114 553.332 716.308 553.656C716.506 553.977 716.804 554.137 717.202 554.137C717.594 554.137 717.885 553.985 718.074 553.682C718.266 553.378 718.367 552.9 718.375 552.246V550.945ZM724.111 552.032C724.111 552.963 723.952 553.654 723.634 554.107C723.317 554.56 722.819 554.786 722.143 554.786C721.476 554.786 720.982 554.565 720.661 554.124C720.34 553.68 720.174 553.019 720.163 552.139V551.078C720.163 550.158 720.322 549.475 720.64 549.028C720.958 548.581 721.456 548.358 722.135 548.358C722.808 548.358 723.304 548.574 723.622 549.007C723.94 549.436 724.103 550.101 724.111 551V552.032ZM723.317 550.945C723.317 550.271 723.222 549.782 723.033 549.475C722.844 549.166 722.544 549.011 722.135 549.011C721.728 549.011 721.432 549.164 721.245 549.471C721.059 549.777 720.963 550.248 720.958 550.884V552.156C720.958 552.832 721.055 553.332 721.25 553.656C721.447 553.977 721.745 554.137 722.143 554.137C722.536 554.137 722.827 553.985 723.016 553.682C723.208 553.378 723.308 552.9 723.317 552.246V550.945Z" fill="#4D4D4D"/>
<path id="Number of affiliated schools" d="M314.547 572.09H313.417L309.122 565.516V572.09H307.991V563.559H309.122L313.428 570.162V563.559H314.547V572.09ZM320.29 571.463C319.868 571.959 319.249 572.207 318.432 572.207C317.756 572.207 317.241 572.012 316.885 571.621C316.534 571.227 316.356 570.645 316.352 569.875V565.75H317.436V569.846C317.436 570.807 317.827 571.287 318.608 571.287C319.436 571.287 319.987 570.979 320.26 570.362V565.75H321.344V572.09H320.313L320.29 571.463ZM324.016 565.75L324.045 566.453C324.51 565.906 325.137 565.633 325.926 565.633C326.813 565.633 327.417 565.973 327.737 566.653C327.948 566.348 328.221 566.102 328.557 565.914C328.897 565.727 329.297 565.633 329.758 565.633C331.149 565.633 331.856 566.369 331.879 567.842V572.09H330.795V567.906C330.795 567.453 330.692 567.115 330.485 566.893C330.278 566.666 329.93 566.553 329.442 566.553C329.04 566.553 328.706 566.674 328.44 566.916C328.174 567.154 328.02 567.477 327.977 567.883V572.09H326.887V567.936C326.887 567.014 326.436 566.553 325.534 566.553C324.823 566.553 324.336 566.856 324.075 567.461V572.09H322.991V565.75H324.016ZM338.887 568.99C338.887 569.959 338.665 570.738 338.219 571.328C337.774 571.914 337.176 572.207 336.426 572.207C335.626 572.207 335.006 571.924 334.569 571.358L334.516 572.09H333.52V563.09H334.604V566.447C335.042 565.904 335.645 565.633 336.415 565.633C337.184 565.633 337.788 565.924 338.225 566.506C338.667 567.088 338.887 567.885 338.887 568.897V568.99ZM337.803 568.867C337.803 568.129 337.661 567.559 337.376 567.156C337.09 566.754 336.68 566.553 336.145 566.553C335.43 566.553 334.917 566.885 334.604 567.549V570.291C334.936 570.955 335.454 571.287 336.157 571.287C336.676 571.287 337.081 571.086 337.37 570.684C337.659 570.281 337.803 569.676 337.803 568.867ZM342.889 572.207C342.03 572.207 341.331 571.926 340.792 571.363C340.253 570.797 339.983 570.041 339.983 569.096V568.897C339.983 568.268 340.102 567.707 340.34 567.215C340.583 566.719 340.919 566.332 341.348 566.055C341.782 565.774 342.251 565.633 342.754 565.633C343.579 565.633 344.219 565.904 344.676 566.447C345.133 566.99 345.362 567.768 345.362 568.779V569.231H341.067C341.083 569.856 341.264 570.362 341.612 570.748C341.963 571.131 342.409 571.322 342.948 571.322C343.331 571.322 343.655 571.244 343.92 571.088C344.186 570.932 344.419 570.725 344.618 570.467L345.28 570.983C344.749 571.799 343.952 572.207 342.889 572.207ZM342.754 566.524C342.317 566.524 341.95 566.684 341.653 567.004C341.356 567.32 341.172 567.766 341.102 568.34H344.278V568.258C344.247 567.707 344.098 567.281 343.833 566.981C343.567 566.676 343.208 566.524 342.754 566.524ZM349.686 566.723C349.522 566.695 349.344 566.682 349.153 566.682C348.442 566.682 347.96 566.985 347.706 567.59V572.09H346.622V565.75H347.676L347.694 566.483C348.049 565.916 348.553 565.633 349.206 565.633C349.417 565.633 349.577 565.66 349.686 565.715V566.723ZM353.378 568.862C353.378 568.24 353.499 567.682 353.741 567.186C353.987 566.69 354.327 566.307 354.76 566.037C355.198 565.768 355.696 565.633 356.254 565.633C357.118 565.633 357.815 565.932 358.346 566.529C358.881 567.127 359.149 567.922 359.149 568.914V568.99C359.149 569.608 359.03 570.162 358.792 570.654C358.557 571.143 358.219 571.524 357.778 571.797C357.34 572.07 356.836 572.207 356.266 572.207C355.407 572.207 354.71 571.908 354.174 571.311C353.643 570.713 353.378 569.922 353.378 568.938V568.862ZM354.467 568.99C354.467 569.694 354.629 570.258 354.954 570.684C355.282 571.11 355.719 571.322 356.266 571.322C356.817 571.322 357.254 571.108 357.579 570.678C357.903 570.244 358.065 569.639 358.065 568.862C358.065 568.166 357.899 567.604 357.567 567.174C357.239 566.74 356.801 566.524 356.254 566.524C355.719 566.524 355.288 566.737 354.96 567.162C354.631 567.588 354.467 568.197 354.467 568.99ZM361.042 572.09V566.588H360.04V565.75H361.042V565.1C361.042 564.42 361.223 563.895 361.586 563.524C361.95 563.153 362.463 562.967 363.128 562.967C363.378 562.967 363.626 563 363.872 563.067L363.813 563.945C363.629 563.91 363.434 563.893 363.227 563.893C362.876 563.893 362.604 563.996 362.413 564.203C362.221 564.406 362.126 564.699 362.126 565.082V565.75H363.479V566.588H362.126V572.09H361.042ZM371.571 572.09C371.508 571.965 371.458 571.742 371.419 571.422C370.915 571.945 370.313 572.207 369.614 572.207C368.989 572.207 368.475 572.031 368.073 571.68C367.674 571.324 367.475 570.875 367.475 570.332C367.475 569.672 367.725 569.16 368.225 568.797C368.729 568.43 369.436 568.246 370.346 568.246H371.401V567.748C371.401 567.369 371.288 567.069 371.061 566.846C370.835 566.619 370.501 566.506 370.059 566.506C369.672 566.506 369.348 566.604 369.086 566.799C368.825 566.994 368.694 567.231 368.694 567.508H367.604C367.604 567.192 367.715 566.887 367.938 566.594C368.165 566.297 368.469 566.063 368.852 565.891C369.239 565.719 369.663 565.633 370.124 565.633C370.854 565.633 371.426 565.817 371.84 566.184C372.254 566.547 372.469 567.049 372.485 567.69V570.608C372.485 571.19 372.559 571.653 372.708 571.996V572.09H371.571ZM369.772 571.264C370.112 571.264 370.434 571.176 370.739 571C371.044 570.824 371.264 570.596 371.401 570.315V569.014H370.551C369.223 569.014 368.559 569.403 368.559 570.18C368.559 570.52 368.672 570.785 368.899 570.977C369.126 571.168 369.417 571.264 369.772 571.264ZM374.717 572.09V566.588H373.715V565.75H374.717V565.1C374.717 564.42 374.899 563.895 375.262 563.524C375.626 563.153 376.139 562.967 376.803 562.967C377.053 562.967 377.301 563 377.547 563.067L377.489 563.945C377.305 563.91 377.11 563.893 376.903 563.893C376.551 563.893 376.28 563.996 376.088 564.203C375.897 564.406 375.801 564.699 375.801 565.082V565.75H378.145V565.211C378.145 564.504 378.346 563.953 378.749 563.559C379.155 563.164 379.727 562.967 380.465 562.967C380.903 562.967 381.456 563.086 382.124 563.324L381.942 564.238C381.454 564.043 380.987 563.945 380.542 563.945C380.077 563.945 379.741 564.049 379.534 564.256C379.331 564.463 379.229 564.778 379.229 565.199V565.75H380.53V566.588H379.229V572.09H378.145V566.588H375.801V572.09H374.717ZM382.657 572.09H381.573V565.75H382.657V572.09ZM385.604 572.09H384.52V563.09H385.604V572.09ZM388.522 572.09H387.438V565.75H388.522V572.09ZM387.35 564.069C387.35 563.893 387.403 563.744 387.508 563.623C387.618 563.502 387.778 563.442 387.989 563.442C388.2 563.442 388.36 563.502 388.469 563.623C388.579 563.744 388.633 563.893 388.633 564.069C388.633 564.244 388.579 564.391 388.469 564.508C388.36 564.625 388.2 564.684 387.989 564.684C387.778 564.684 387.618 564.625 387.508 564.508C387.403 564.391 387.35 564.244 387.35 564.069ZM394.176 572.09C394.114 571.965 394.063 571.742 394.024 571.422C393.52 571.945 392.919 572.207 392.219 572.207C391.594 572.207 391.081 572.031 390.678 571.68C390.28 571.324 390.081 570.875 390.081 570.332C390.081 569.672 390.331 569.16 390.831 568.797C391.335 568.43 392.042 568.246 392.952 568.246H394.006V567.748C394.006 567.369 393.893 567.069 393.667 566.846C393.44 566.619 393.106 566.506 392.665 566.506C392.278 566.506 391.954 566.604 391.692 566.799C391.43 566.994 391.299 567.231 391.299 567.508H390.21C390.21 567.192 390.321 566.887 390.544 566.594C390.77 566.297 391.075 566.063 391.458 565.891C391.844 565.719 392.268 565.633 392.729 565.633C393.46 565.633 394.032 565.817 394.446 566.184C394.86 566.547 395.075 567.049 395.09 567.69V570.608C395.09 571.19 395.165 571.653 395.313 571.996V572.09H394.176ZM392.378 571.264C392.717 571.264 393.04 571.176 393.344 571C393.649 570.824 393.87 570.596 394.006 570.315V569.014H393.157C391.829 569.014 391.165 569.403 391.165 570.18C391.165 570.52 391.278 570.785 391.504 570.977C391.731 571.168 392.022 571.264 392.378 571.264ZM398.26 564.215V565.75H399.444V566.588H398.26V570.52C398.26 570.774 398.313 570.965 398.419 571.094C398.524 571.219 398.704 571.281 398.958 571.281C399.083 571.281 399.254 571.258 399.473 571.211V572.09C399.188 572.168 398.911 572.207 398.641 572.207C398.157 572.207 397.792 572.061 397.545 571.768C397.299 571.475 397.176 571.059 397.176 570.52V566.588H396.022V565.75H397.176V564.215H398.26ZM403.346 572.207C402.487 572.207 401.788 571.926 401.249 571.363C400.71 570.797 400.44 570.041 400.44 569.096V568.897C400.44 568.268 400.559 567.707 400.797 567.215C401.04 566.719 401.376 566.332 401.805 566.055C402.239 565.774 402.708 565.633 403.211 565.633C404.036 565.633 404.676 565.904 405.133 566.447C405.59 566.99 405.819 567.768 405.819 568.779V569.231H401.524C401.54 569.856 401.721 570.362 402.069 570.748C402.42 571.131 402.866 571.322 403.405 571.322C403.788 571.322 404.112 571.244 404.378 571.088C404.643 570.932 404.876 570.725 405.075 570.467L405.737 570.983C405.206 571.799 404.409 572.207 403.346 572.207ZM403.211 566.524C402.774 566.524 402.407 566.684 402.11 567.004C401.813 567.32 401.629 567.766 401.559 568.34H404.735V568.258C404.704 567.707 404.555 567.281 404.29 566.981C404.024 566.676 403.665 566.524 403.211 566.524ZM406.815 568.867C406.815 567.895 407.045 567.113 407.506 566.524C407.967 565.93 408.571 565.633 409.317 565.633C410.059 565.633 410.647 565.887 411.081 566.395V563.09H412.165V572.09H411.169L411.116 571.41C410.682 571.942 410.079 572.207 409.305 572.207C408.571 572.207 407.971 571.906 407.506 571.305C407.045 570.703 406.815 569.918 406.815 568.949V568.867ZM407.899 568.99C407.899 569.709 408.047 570.272 408.344 570.678C408.641 571.084 409.051 571.287 409.575 571.287C410.262 571.287 410.764 570.979 411.081 570.362V567.449C410.756 566.852 410.258 566.553 409.586 566.553C409.055 566.553 408.641 566.758 408.344 567.168C408.047 567.578 407.899 568.186 407.899 568.99ZM420.52 570.408C420.52 570.115 420.409 569.889 420.186 569.729C419.967 569.565 419.583 569.424 419.032 569.307C418.485 569.19 418.049 569.049 417.725 568.885C417.405 568.721 417.167 568.526 417.01 568.299C416.858 568.072 416.782 567.803 416.782 567.49C416.782 566.971 417.001 566.531 417.438 566.172C417.879 565.813 418.442 565.633 419.126 565.633C419.844 565.633 420.426 565.819 420.872 566.19C421.321 566.561 421.545 567.035 421.545 567.613H420.456C420.456 567.317 420.329 567.061 420.075 566.846C419.825 566.631 419.508 566.524 419.126 566.524C418.731 566.524 418.422 566.61 418.2 566.781C417.977 566.953 417.866 567.178 417.866 567.455C417.866 567.717 417.969 567.914 418.176 568.047C418.383 568.18 418.756 568.307 419.295 568.428C419.838 568.549 420.278 568.694 420.614 568.862C420.95 569.029 421.198 569.233 421.358 569.471C421.522 569.705 421.604 569.992 421.604 570.332C421.604 570.899 421.378 571.354 420.924 571.697C420.471 572.037 419.883 572.207 419.161 572.207C418.653 572.207 418.204 572.117 417.813 571.938C417.422 571.758 417.116 571.508 416.893 571.188C416.674 570.863 416.565 570.514 416.565 570.139H417.649C417.669 570.502 417.813 570.791 418.083 571.006C418.356 571.217 418.715 571.322 419.161 571.322C419.571 571.322 419.899 571.24 420.145 571.076C420.395 570.908 420.52 570.686 420.52 570.408ZM425.559 571.322C425.946 571.322 426.284 571.205 426.573 570.971C426.862 570.737 427.022 570.444 427.053 570.092H428.079C428.059 570.455 427.934 570.801 427.704 571.129C427.473 571.457 427.165 571.719 426.778 571.914C426.395 572.11 425.989 572.207 425.559 572.207C424.696 572.207 424.008 571.92 423.497 571.346C422.989 570.768 422.735 569.979 422.735 568.979V568.797C422.735 568.18 422.848 567.631 423.075 567.151C423.301 566.67 423.626 566.297 424.047 566.031C424.473 565.766 424.975 565.633 425.553 565.633C426.264 565.633 426.854 565.846 427.323 566.272C427.795 566.697 428.047 567.25 428.079 567.93H427.053C427.022 567.52 426.866 567.184 426.585 566.922C426.307 566.656 425.963 566.524 425.553 566.524C425.003 566.524 424.575 566.723 424.27 567.121C423.969 567.516 423.819 568.088 423.819 568.838V569.043C423.819 569.774 423.969 570.336 424.27 570.731C424.571 571.125 425.001 571.322 425.559 571.322ZM430.381 566.518C430.862 565.928 431.487 565.633 432.256 565.633C433.596 565.633 434.272 566.389 434.284 567.901V572.09H433.2V567.895C433.196 567.438 433.09 567.1 432.883 566.881C432.68 566.662 432.362 566.553 431.928 566.553C431.577 566.553 431.268 566.647 431.003 566.834C430.737 567.022 430.53 567.268 430.381 567.572V572.09H429.297V563.09H430.381V566.518ZM435.62 568.862C435.62 568.24 435.741 567.682 435.983 567.186C436.229 566.69 436.569 566.307 437.003 566.037C437.44 565.768 437.938 565.633 438.497 565.633C439.36 565.633 440.057 565.932 440.588 566.529C441.124 567.127 441.391 567.922 441.391 568.914V568.99C441.391 569.608 441.272 570.162 441.034 570.654C440.799 571.143 440.461 571.524 440.02 571.797C439.583 572.07 439.079 572.207 438.508 572.207C437.649 572.207 436.952 571.908 436.417 571.311C435.885 570.713 435.62 569.922 435.62 568.938V568.862ZM436.71 568.99C436.71 569.694 436.872 570.258 437.196 570.684C437.524 571.11 437.961 571.322 438.508 571.322C439.059 571.322 439.497 571.108 439.821 570.678C440.145 570.244 440.307 569.639 440.307 568.862C440.307 568.166 440.141 567.604 439.809 567.174C439.481 566.74 439.044 566.524 438.497 566.524C437.961 566.524 437.53 566.737 437.202 567.162C436.874 567.588 436.71 568.197 436.71 568.99ZM442.463 568.862C442.463 568.24 442.585 567.682 442.827 567.186C443.073 566.69 443.413 566.307 443.846 566.037C444.284 565.768 444.782 565.633 445.34 565.633C446.204 565.633 446.901 565.932 447.432 566.529C447.967 567.127 448.235 567.922 448.235 568.914V568.99C448.235 569.608 448.116 570.162 447.878 570.654C447.643 571.143 447.305 571.524 446.864 571.797C446.426 572.07 445.922 572.207 445.352 572.207C444.493 572.207 443.795 571.908 443.26 571.311C442.729 570.713 442.463 569.922 442.463 568.938V568.862ZM443.553 568.99C443.553 569.694 443.715 570.258 444.04 570.684C444.368 571.11 444.805 571.322 445.352 571.322C445.903 571.322 446.34 571.108 446.665 570.678C446.989 570.244 447.151 569.639 447.151 568.862C447.151 568.166 446.985 567.604 446.653 567.174C446.325 566.74 445.887 566.524 445.34 566.524C444.805 566.524 444.374 566.737 444.045 567.162C443.717 567.588 443.553 568.197 443.553 568.99ZM450.772 572.09H449.688V563.09H450.772V572.09ZM456.204 570.408C456.204 570.115 456.092 569.889 455.87 569.729C455.651 569.565 455.266 569.424 454.715 569.307C454.169 569.19 453.733 569.049 453.409 568.885C453.088 568.721 452.85 568.526 452.694 568.299C452.542 568.072 452.465 567.803 452.465 567.49C452.465 566.971 452.684 566.531 453.122 566.172C453.563 565.813 454.126 565.633 454.809 565.633C455.528 565.633 456.11 565.819 456.555 566.19C457.004 566.561 457.229 567.035 457.229 567.613H456.139C456.139 567.317 456.012 567.061 455.758 566.846C455.508 566.631 455.192 566.524 454.809 566.524C454.415 566.524 454.106 566.61 453.883 566.781C453.661 566.953 453.549 567.178 453.549 567.455C453.549 567.717 453.653 567.914 453.86 568.047C454.067 568.18 454.44 568.307 454.979 568.428C455.522 568.549 455.961 568.694 456.297 568.862C456.633 569.029 456.881 569.233 457.042 569.471C457.206 569.705 457.288 569.992 457.288 570.332C457.288 570.899 457.061 571.354 456.608 571.697C456.155 572.037 455.567 572.207 454.844 572.207C454.336 572.207 453.887 572.117 453.497 571.938C453.106 571.758 452.799 571.508 452.577 571.188C452.358 570.863 452.249 570.514 452.249 570.139H453.333C453.352 570.502 453.497 570.791 453.766 571.006C454.04 571.217 454.399 571.322 454.844 571.322C455.254 571.322 455.583 571.24 455.829 571.076C456.079 570.908 456.204 570.686 456.204 570.408Z" fill="black"/>
</g>
</g>
</g>
<defs>
<clipPath id="clip0">
<rect width="720" height="576" fill="white"/>
</clipPath>
</defs>
</svg>
